<?xml version="1.0" encoding="UTF-8"?>
<svg version="1.1" xmlns="http://www.w3.org/2000/svg" width="1000" height="1000">
<path d="M0 0 C330 0 660 0 1000 0 C1000 330 1000 660 1000 1000 C670 1000 340 1000 0 1000 C0 670 0 340 0 0 Z " fill="#FEFEFE" transform="translate(0,0)"/>
<path d="M0 0 C21.49805236 -0.5186285 41.72856231 7.77900351 60.68359375 17.08129883 C62.15074966 17.77072267 63.61816678 18.45959112 65.0859375 19.14770508 C73.92630373 23.43240153 80.9090898 29.15187912 88.12597656 35.69311523 C90.30783266 37.63763463 92.57842362 39.45708316 94.87109375 41.26879883 C95.66 41.89915039 96.44890625 42.52950195 97.26171875 43.17895508 C98.94315175 44.49969358 100.64256982 45.79772686 102.35546875 47.07739258 C109.60318549 52.65649656 114.76957989 58.90428035 120.20507812 66.15161133 C122.27929407 68.85877825 124.45147223 71.47990042 126.62573242 74.10693359 C137.64063401 87.43891154 146.21775544 101.2778206 154.31933594 116.5246582 C155.53204977 118.79730303 156.76142312 121.0592102 158.00390625 123.31567383 C158.33632324 123.9215332 158.66874023 124.52739258 159.01123047 125.15161133 C159.86509346 126.70655505 160.7196269 128.26113056 161.57421875 129.81567383 C162.68359375 132.08129883 162.68359375 132.08129883 162.68359375 134.08129883 C163.56974365 133.75750244 164.45589355 133.43370605 165.36889648 133.10009766 C171.0450829 131.49131712 176.86475417 131.77609825 182.71875 131.78051758 C184.62327187 131.77408989 184.62327187 131.77408989 186.56626892 131.76753235 C189.25696649 131.76179578 191.94728001 131.76034205 194.63793945 131.765625 C197.3500243 131.77021044 200.06165595 131.76351471 202.77368164 131.74511719 C242.71527567 131.49338959 242.71527567 131.49338959 257.68359375 137.08129883 C257.96074219 135.79223633 258.23789062 134.50317383 258.5234375 133.17504883 C266.8055029 96.16119616 283.7717264 42.73304299 317.4140625 21.38208008 C318.16300781 20.95282227 318.91195313 20.52356445 319.68359375 20.08129883 C320.27785156 19.72422852 320.87210938 19.3671582 321.484375 18.99926758 C328.96924839 15.364706 339.70140763 15.84393592 347.65625 17.81958008 C354.94624323 20.99667697 359.81353568 26.99513812 364.68359375 33.08129883 C365.32627197 33.85691162 365.32627197 33.85691162 365.98193359 34.64819336 C373.86358827 44.25515609 377.99042389 54.30395192 381.68359375 66.08129883 C381.98394531 66.99218262 382.28429687 67.90306641 382.59375 68.84155273 C401.15649259 125.56859507 397.68910912 194.00459843 389.51049805 252.28369141 C387.92151241 264.09366367 390.32045836 271.28661384 395.74609375 281.89379883 C401.32824935 293.08481342 406.29920634 304.36964463 410.68359375 316.08129883 C411.00054199 316.92225098 411.31749023 317.76320313 411.64404297 318.62963867 C417.52347066 334.26779532 422.44335081 349.96351789 426.85546875 366.08081055 C427.56178447 368.63995566 428.28945662 371.19130348 429.02734375 373.74145508 C432.84570117 387.25381105 433.75829309 397.42214004 427.12109375 409.89379883 C423.3826415 416.57727895 419.33456346 422.99369625 414.68359375 429.08129883 C414.02101563 429.99524414 413.3584375 430.90918945 412.67578125 431.85083008 C398.77581435 450.85741565 382.45058453 468.79547461 363.68359375 483.08129883 C359.25368102 486.34926593 359.25368102 486.34926593 356.68359375 491.08129883 C357.74906034 492.67597394 357.74906034 492.67597394 359.43359375 494.26879883 C374.81587896 511.20454254 385.64336367 533.10231186 391.68359375 555.08129883 C391.98652344 556.16668945 392.28945313 557.25208008 392.6015625 558.37036133 C394.92999044 567.1812201 395.85208468 575.5614423 395.80859375 584.64379883 C395.81246094 585.45526367 395.81632813 586.26672852 395.8203125 587.1027832 C395.81433325 590.80692962 395.7234052 593.92023515 394.828125 597.54223633 C394.6038069 603.03499838 397.38368124 606.59526207 400.24609375 611.14379883 C407.76804094 623.3243816 412.90461251 636.11305027 417.49609375 649.64379883 C418.13285034 651.51708862 418.13285034 651.51708862 418.7824707 653.42822266 C419.88117554 656.67483836 420.96729411 659.92552582 422.0489502 663.17785645 C422.66222008 665.01719427 423.28168314 666.85446361 423.90136719 668.69165039 C430.02997074 686.97607803 434.34349951 705.279509 437.93530273 724.19311523 C438.66031611 727.96034626 439.43322705 731.71527567 440.2109375 735.47192383 C441.75449786 743.170507 442.94553386 750.90016694 444.04614258 758.67211914 C444.37394855 760.97636611 444.71305379 763.27877584 445.05273438 765.58129883 C446.09326547 772.77712107 446.99082256 779.79084221 446.68359375 787.08129883 C442.39359375 787.08129883 438.10359375 787.08129883 433.68359375 787.08129883 C433.44576172 785.11290039 433.44576172 785.11290039 433.203125 783.10473633 C428.94394608 748.70125791 424.19303897 712.31460348 412.52148438 679.49389648 C411.53230247 676.64567517 410.61518222 673.77811458 409.69921875 670.90551758 C403.06695436 650.24080957 395.63061107 629.90721964 385.43359375 610.70629883 C384.96268311 609.80290771 384.49177246 608.8995166 384.0065918 607.96875 C379.68247001 600.1425341 375.48651975 596.73020884 366.890625 594.24536133 C364.76300989 593.71641805 362.63130352 593.20369833 360.49609375 592.70629883 C358.87670898 592.29831055 358.87670898 592.29831055 357.22460938 591.88208008 C350.9398427 590.10196926 350.9398427 590.10196926 344.68359375 591.08129883 C343.03020968 592.43100011 341.38480583 593.79234231 339.79296875 595.21411133 C335.54222967 598.97680258 331.0880208 602.50119761 326.68359375 606.08129883 C325.74 606.85860352 324.79640625 607.6359082 323.82421875 608.43676758 C322.9321875 609.16508789 322.04015625 609.8934082 321.12109375 610.64379883 C320.31542969 611.30508789 319.50976562 611.96637695 318.6796875 612.64770508 C316.68359375 614.08129883 316.68359375 614.08129883 314.68359375 614.08129883 C314.73 615.12286133 314.77640625 616.16442383 314.82421875 617.23754883 C315.12686451 627.12940924 314.0297089 635.67705483 311.24804688 645.15356445 C309.80150828 650.0938191 308.52158907 655.07981073 307.23193359 660.06274414 C306.63258942 662.26905652 305.96408513 664.44930039 305.296875 666.63598633 C302.78223415 674.92209552 302.78223415 674.92209552 303.67578125 683.31567383 C306.05401332 687.19537038 308.66353597 690.21579526 312.1328125 693.15942383 C316.49343142 697.06361726 318.83851211 700.08525188 319.30078125 705.97973633 C319.40836662 708.88733897 319.43381128 711.78703388 319.44165039 714.6965332 C319.48960862 722.31642737 320.39303492 729.38351089 321.99609375 736.83129883 C322.19750977 737.79374512 322.39892578 738.75619141 322.60644531 739.74780273 C323.90100514 745.55721544 325.65709084 751.0550913 327.75805664 756.62133789 C335.68359375 777.68641621 335.68359375 777.68641621 335.68359375 787.08129883 C305.65359375 787.08129883 275.62359375 787.08129883 244.68359375 787.08129883 C245.34359375 772.89129883 246.00359375 758.70129883 246.68359375 744.08129883 C247.29942517 729.55856519 247.29942517 729.55856519 243.62109375 717.01879883 C240.7728456 709.93730722 239.55591252 705.07632729 242.59375 697.94458008 C243.56331085 695.95016024 244.60289871 694.01718954 245.68359375 692.08129883 C247.59052532 688.17662943 247.94788291 686.25526782 246.68359375 682.08129883 C244.72770239 679.32144721 244.72770239 679.32144721 242.30859375 676.64379883 C239.06199295 672.92659955 236.86733417 669.48848403 234.68359375 665.08129883 C233.16614715 663.00592781 231.60000617 660.96559571 229.99609375 658.95629883 C225.21626173 652.87510094 220.87497223 646.58486337 216.68359375 640.08129883 C215.68585938 638.55182617 215.68585938 638.55182617 214.66796875 636.99145508 C210.76701536 630.95766335 208.54245775 627.20694713 208.62109375 619.89379883 C208.63011719 618.80711914 208.63914062 617.72043945 208.6484375 616.60083008 C208.66583984 615.35366211 208.66583984 615.35366211 208.68359375 614.08129883 C207.59570557 613.89555298 207.59570557 613.89555298 206.48583984 613.70605469 C203.72983542 613.09160833 201.42389483 612.22863222 198.84765625 611.08520508 C197.49800781 610.49449219 197.49800781 610.49449219 196.12109375 609.8918457 C195.19296875 609.47999023 194.26484375 609.06813477 193.30859375 608.64379883 C189.78308556 607.08102104 186.24836511 605.55243474 182.68359375 604.08129883 C182.01505371 603.79295166 181.34651367 603.50460449 180.65771484 603.20751953 C178.68253463 602.40039766 178.68253463 602.40039766 175.68359375 602.08129883 C172.64387972 603.59991661 172.64387972 603.59991661 170.05859375 606.14379883 C169.15882813 606.93915039 168.2590625 607.73450195 167.33203125 608.55395508 C165.61405767 610.19337824 163.91353275 611.85135983 162.234375 613.53051758 C159.3889845 616.37590807 156.4586795 619.10917408 153.49609375 621.83129883 C152.92874512 622.35425537 152.36139648 622.87721191 151.77685547 623.41601562 C148.31229694 626.60362363 144.82052475 629.75833823 141.30859375 632.89379883 C138.43272721 635.46718749 135.64156216 638.08194225 132.93359375 640.83129883 C124.76566495 649.0374849 124.76566495 649.0374849 120.5 649.21020508 C119.57058594 649.16766602 118.64117187 649.12512695 117.68359375 649.08129883 C121.28886314 672.01605278 124.92819428 694.94540343 128.57894897 717.87295532 C129.06031416 720.89614817 129.54128091 723.91940396 130.0218811 726.94271851 C130.60004634 730.57951095 131.17905495 734.21616816 131.75872993 737.85272026 C131.98374539 739.2648605 132.20853343 740.67703701 132.4330883 742.08925056 C133.55734915 749.15675361 134.6980499 756.22040101 135.90917969 763.27368164 C136.19165054 764.92516708 136.19165054 764.92516708 136.47982788 766.61001587 C136.82627039 768.62263432 137.17759338 770.63442222 137.5350647 772.64511108 C137.68768768 773.53106964 137.84031067 774.4170282 137.99755859 775.32983398 C138.13092621 776.08463043 138.26429382 776.83942688 138.40170288 777.61709595 C138.76040729 780.75277909 138.68359375 783.92516549 138.68359375 787.08129883 C49.91359375 787.08129883 -38.85640625 787.08129883 -130.31640625 787.08129883 C-125.68610298 769.71766157 -125.68610298 769.71766157 -123.12890625 763.83129883 C-122.83628906 763.14076416 -122.54367188 762.45022949 -122.2421875 761.73876953 C-119.86717054 756.20386672 -117.36429135 750.72597891 -114.81640625 745.26879883 C-114.30170776 744.15939941 -114.30170776 744.15939941 -113.77661133 743.02758789 C-108.53962003 732.01741114 -101.99288497 721.8225365 -95.12890625 711.76879883 C-94.75890503 711.22504608 -94.38890381 710.68129333 -94.00769043 710.12106323 C-89.14771806 702.99107855 -84.1238575 696.06842812 -78.63623047 689.40795898 C-72.47562585 681.91772748 -66.90913766 673.99937379 -61.31640625 666.08129883 C-60.8275293 665.39390625 -60.33865234 664.70651367 -59.83496094 663.99829102 C-53.2926083 654.78012953 -47.3552811 645.33413587 -41.73095703 635.53198242 C-40.16953037 632.82683903 -38.58643361 630.13513163 -37 627.44458008 C-29.16247087 614.13370373 -21.62551548 600.68880023 -14.31640625 587.08129883 C-13.56927754 585.69964393 -12.82190268 584.3181221 -12.07421875 582.93676758 C-8.28634038 575.91320333 -4.65080905 568.82548573 -1.12426758 561.66699219 C1.05821652 557.25542486 3.38889404 552.97587439 5.96875 548.78051758 C6.98512684 546.88696796 6.98512684 546.88696796 5.68359375 544.08129883 C3.85882886 542.44964626 3.85882886 542.44964626 1.68359375 540.95629883 C-2.30374802 538.09395706 -2.30374802 538.09395706 -3.31640625 537.08129883 C-3.00700378 532.67231359 -2.54234655 529.60261197 -0.765625 525.50317383 C1.56981168 519.47499466 0.78580469 513.29406436 0.47851562 506.95043945 C0.27734151 499.791585 0.27734151 499.791585 2.5 495.90551758 C4.68359375 494.08129883 4.68359375 494.08129883 7.68359375 494.08129883 C7.68359375 493.09129883 7.68359375 492.10129883 7.68359375 491.08129883 C6.99910156 490.88922852 6.31460938 490.6971582 5.609375 490.49926758 C1.55375688 488.53372769 -1.04614883 485.63153641 -4.12890625 482.39379883 C-7.62826234 478.76180271 -11.11406563 475.20078438 -14.953125 471.92504883 C-20.42532992 467.21009593 -25.4965222 462.08722093 -30.60107422 456.98193359 C-32.33543939 455.24979006 -34.07770216 453.52584572 -35.8203125 451.80200195 C-36.92366412 450.70157861 -38.02654664 449.60068467 -39.12890625 448.49926758 C-39.6506543 447.98470505 -40.17240234 447.47014252 -40.70996094 446.93998718 C-44.31640625 443.31016761 -44.31640625 443.31016761 -44.31640625 441.08129883 C-44.97640625 441.08129883 -45.63640625 441.08129883 -46.31640625 441.08129883 C-47.93956388 439.15643904 -49.44901321 437.22912747 -50.94140625 435.20629883 C-51.84637023 433.995701 -52.75263326 432.78607323 -53.66015625 431.57739258 C-54.11003906 430.97781738 -54.55992187 430.37824219 -55.0234375 429.76049805 C-56.74580999 427.52362532 -58.59903244 425.40726843 -60.44140625 423.26879883 C-65.60943664 416.90085915 -68.85820191 409.46340085 -72.31640625 402.08129883 C-72.64640625 401.42129883 -72.97640625 400.76129883 -73.31640625 400.08129883 C-73.97838538 390.48541439 -72.71271322 381.15723156 -71.19140625 371.70629883 C-71.08003326 370.9980899 -70.96866028 370.28988098 -70.85391235 369.56021118 C-70.04141626 364.39484688 -69.19089782 359.23651023 -68.31640625 354.08129883 C-68.20041077 353.39674622 -68.08441528 352.7121936 -67.96490479 352.00689697 C-64.86152115 333.82601715 -60.74165228 316.1404618 -55.35742188 298.49975586 C-54.29798736 295.02081542 -53.26633873 291.53447133 -52.23828125 288.04614258 C-46.75129161 269.62785691 -46.75129161 269.62785691 -42.75390625 261.14379883 C-39.93301011 254.85044087 -40.00783241 250.75502544 -41.31640625 244.08129883 C-46.47801152 213.05164856 -46.66549816 182.46046706 -46.31640625 151.08129883 C-46.30543915 149.91416351 -46.30543915 149.91416351 -46.29425049 148.72344971 C-46.13370785 131.69869848 -44.99423548 114.83918479 -43.44140625 97.89379883 C-43.36031616 97.00131439 -43.27922607 96.10882996 -43.19567871 95.18930054 C-36.8789963 26.70079025 -36.8789963 26.70079025 -13.81640625 4.45629883 C-9.17132087 0.62449439 -5.9278092 0.20804811 0 0 Z " fill="#050404" transform="translate(341.31640625,105.918701171875)"/>
<path d="M0 0 C3.67935176 -0.00966153 7.35813316 -0.04074563 11.03735352 -0.07226562 C42.30599675 -0.21203019 72.58447266 2.29038823 97.46508789 23.01757812 C100.8900348 25.72048352 104.47208157 28.12418352 108.09399414 30.55273438 C115.62009012 35.63669261 122.48757951 41.22404418 129.28149414 47.24023438 C130.19930664 48.03558594 131.11711914 48.8309375 132.06274414 49.65039062 C136.68352487 53.70749178 140.90132273 57.85894482 144.80883789 62.61132812 C146.37997599 64.48298123 146.37997599 64.48298123 149.28149414 66.24023438 C149.28149414 66.90023437 149.28149414 67.56023437 149.28149414 68.24023438 C149.94149414 68.24023438 150.60149414 68.24023438 151.28149414 68.24023438 C152.65649414 70.11914063 152.65649414 70.11914063 154.28149414 72.80273438 C156.35877696 76.18264663 158.4539029 79.52669068 160.71899414 82.78320312 C161.1430957 83.39800537 161.56719727 84.01280762 162.00415039 84.64624023 C162.81604045 85.81829789 163.63553747 86.98515014 164.46508789 88.14477539 C171.89139701 98.96618607 176.4459156 111.81035621 181.22192383 123.95983887 C182.72804122 127.79027656 184.24932051 131.61468883 185.76977539 135.43945312 C186.22025742 136.57388351 186.22025742 136.57388351 186.67984009 137.73123169 C189.31194201 144.34669572 192.02663027 150.92484963 194.78149414 157.49023438 C195.57969199 159.39647568 196.37787013 161.30272524 197.17602539 163.20898438 C197.71864014 164.50449219 197.71864014 164.50449219 198.2722168 165.82617188 C200.68682889 171.60161561 203.04199709 177.39403351 205.28149414 183.24023438 C205.53962891 183.90684082 205.79776367 184.57344727 206.0637207 185.26025391 C227.25746814 240.61913055 227.25746814 240.61913055 221.04711914 255.12304688 C219.53021921 257.87899873 217.92929274 260.56098932 216.28149414 263.24023438 C215.23867154 265.22274328 214.26147784 267.22582344 213.28149414 269.24023438 C212.62149414 269.24023438 211.96149414 269.24023438 211.28149414 269.24023438 C211.17297119 269.98337891 211.06444824 270.72652344 210.95263672 271.4921875 C210.24243405 274.40016903 209.3719419 275.87222645 207.54321289 278.20898438 C206.97602539 278.93883545 206.40883789 279.66868652 205.82446289 280.4206543 C205.2121582 281.18611572 204.59985352 281.95157715 203.96899414 282.74023438 C203.34250977 283.53469971 202.71602539 284.32916504 202.07055664 285.14770508 C197.24605203 291.19721963 192.15904837 296.93671353 186.82836914 302.54101562 C184.80826831 304.68195071 182.89773994 306.84262861 181.03149414 309.11523438 C178.49587614 312.11851679 175.6733264 314.61783171 172.67993164 317.15820312 C170.24582066 319.27120174 167.89172909 321.45177098 165.5390625 323.65429688 C160.69946412 328.18231517 155.84493087 332.53346547 150.53930664 336.51757812 C146.88590179 339.30503753 143.38431544 342.27705633 139.85961914 345.22460938 C137.4178059 347.13366336 134.94623859 348.66656639 132.28149414 350.24023438 C130.62500047 351.4549964 128.97973871 352.6851734 127.34399414 353.92773438 C116.63289373 361.74355731 105.04400758 367.42547416 93.06665039 372.99023438 C87.76753382 375.45964206 82.55158554 378.08561833 77.35620117 380.765625 C74.37420915 382.28453051 71.5916345 383.64291581 68.28149414 384.24023438 C68.61149414 385.56023437 68.94149414 386.88023437 69.28149414 388.24023438 C75.91195433 390.36198164 81.69182664 389.09701186 87.96899414 386.55273438 C88.65944824 386.28452881 89.34990234 386.01632324 90.0612793 385.73999023 C95.43829985 383.63499408 100.74916931 381.37520743 106.02368164 379.02539062 C106.76875977 378.76628906 107.51383789 378.5071875 108.28149414 378.24023438 C108.94149414 378.57023437 109.60149414 378.90023438 110.28149414 379.24023438 C101.38112485 387.37163794 92.48538164 395.43025422 83.01196289 402.89648438 C80.25760271 405.12101495 80.25760271 405.12101495 78.26977539 407.70898438 C72.30551473 414.70705021 65.96314451 415.28280435 57.21899414 416.11523438 C53.89128366 416.36264957 50.56361888 416.60293043 47.23413086 416.82519531 C44.34336023 417.23153813 42.59301779 417.98410171 40.03540039 419.31054688 C36.52675877 420.62115701 35.22827571 420.22107829 31.61279297 418.91967773 C27.88521115 417.2010144 24.25748246 415.28952046 20.61486816 413.39923096 C16.82426753 411.51642386 12.91564281 409.96623966 8.97680664 408.42382812 C8.1923114 408.11450348 7.40781616 407.80517883 6.59954834 407.48648071 C5.0030935 406.85944604 3.40569628 406.23480549 1.80737305 405.61254883 C-0.58775892 404.67997202 -2.97952669 403.73917068 -5.37084961 402.796875 C-14.28454568 399.29578933 -23.23689619 395.91602038 -32.23332214 392.63345337 C-36.08784701 391.22391958 -39.91135093 389.78000564 -43.69897461 388.19726562 C-51.63133724 384.96911805 -59.88214366 382.54332276 -68.03100586 379.92773438 C-71.62783664 378.76775046 -75.22393037 377.60548895 -78.82006836 376.44335938 C-80.12674721 376.02164711 -80.12674721 376.02164711 -81.45982361 375.59141541 C-87.95536454 373.4932795 -94.4363782 371.35454752 -100.90600586 369.17773438 C-107.06533235 367.10788714 -113.24034177 365.1278379 -119.46459961 363.25976562 C-121.87391021 362.50486759 -124.24865425 361.71509734 -126.62866211 360.87695312 C-128.07485028 360.3718244 -129.52148189 359.86796382 -130.96850586 359.36523438 C-131.70818604 359.10774414 -132.44786621 358.85025391 -133.20996094 358.58496094 C-138.83719594 356.69808218 -144.48908353 355.37398148 -150.29125977 354.13891602 C-161.62854451 351.69728431 -169.1738089 349.32742 -177.71850586 341.24023438 C-179.56639078 339.77394945 -181.42063705 338.31564743 -183.28100586 336.86523438 C-189.15299902 332.02147735 -194.41607251 326.69133408 -199.71850586 321.24023438 C-203.32493191 317.57601303 -207.03837178 314.06927129 -210.84350586 310.61523438 C-212.80766133 308.8296385 -214.76517136 307.03774732 -216.71850586 305.24023438 C-217.33467773 304.675625 -217.95084961 304.11101562 -218.58569336 303.52929688 C-219.71850586 302.24023438 -219.71850586 302.24023438 -219.71850586 300.24023438 C-220.70850586 299.91023438 -221.69850586 299.58023437 -222.71850586 299.24023438 C-224.54272461 297.46289062 -224.54272461 297.46289062 -226.40600586 295.30273438 C-227.33993164 294.23732422 -227.33993164 294.23732422 -228.29272461 293.15039062 C-229.71850586 291.24023438 -229.71850586 291.24023438 -229.71850586 289.24023438 C-230.27538086 289.05460937 -230.83225586 288.86898438 -231.40600586 288.67773438 C-234.74985393 286.59912612 -236.76658414 283.63209835 -238.71850586 280.24023438 C-238.71850586 279.58023437 -238.71850586 278.92023438 -238.71850586 278.24023438 C-239.70850586 277.91023438 -240.69850586 277.58023437 -241.71850586 277.24023438 C-245.71850586 272.78309152 -245.71850586 272.78309152 -245.71850586 270.24023438 C-246.37850586 270.24023438 -247.03850586 270.24023438 -247.71850586 270.24023438 C-248.47409796 268.78479057 -249.22257011 267.32565075 -249.96850586 265.86523438 C-250.38616211 265.053125 -250.80381836 264.24101563 -251.23413086 263.40429688 C-251.96889648 261.83808594 -251.96889648 261.83808594 -252.71850586 260.24023438 C-253.07920166 259.50675781 -253.43989746 258.77328125 -253.81152344 258.01757812 C-256.74508199 251.5557608 -257.04328903 246.92827314 -255.90600586 239.99023438 C-255.68702637 238.48456909 -255.68702637 238.48456909 -255.46362305 236.94848633 C-254.92238818 233.37141106 -254.32557781 229.8067259 -253.71850586 226.24023438 C-253.47384979 224.77783657 -253.2292221 223.31543403 -252.98461914 221.85302734 C-247.87224507 191.54713783 -240.44845343 162.38357 -230.71850586 133.24023438 C-230.38850586 133.24023438 -230.05850586 133.24023438 -229.71850586 133.24023438 C-228.72850586 136.21023438 -227.73850586 139.18023437 -226.71850586 142.24023438 C-218.29242917 143.57448075 -218.29242917 143.57448075 -210.21850586 141.67773438 C-207.48071346 139.00838679 -205.13841269 136.19789828 -202.71850586 133.24023438 C-202.05850586 133.24023438 -201.39850586 133.24023438 -200.71850586 133.24023438 C-200.38850586 131.92023438 -200.05850586 130.60023438 -199.71850586 129.24023438 C-199.05850586 129.24023438 -198.39850586 129.24023438 -197.71850586 129.24023438 C-197.71850586 128.58023438 -197.71850586 127.92023438 -197.71850586 127.24023438 C-197.05850586 127.24023438 -196.39850586 127.24023438 -195.71850586 127.24023438 C-195.71850586 126.25023437 -195.71850586 125.26023437 -195.71850586 124.24023438 C-195.05850586 124.24023438 -194.39850586 124.24023438 -193.71850586 124.24023438 C-193.71850586 123.25023437 -193.71850586 122.26023437 -193.71850586 121.24023438 C-193.05850586 120.91023438 -192.39850586 120.58023438 -191.71850586 120.24023438 C-191.22350586 118.75523437 -191.22350586 118.75523437 -190.71850586 117.24023438 C-190.05850586 117.24023438 -189.39850586 117.24023438 -188.71850586 117.24023438 C-188.44466064 116.50998047 -188.17081543 115.77972656 -187.88867188 115.02734375 C-186.77600544 112.37718727 -185.50916504 110.08501671 -183.99584961 107.64648438 C-181.76739815 103.99660937 -179.61572326 100.32011689 -177.53491211 96.58398438 C-176.99930664 95.62363281 -176.46370117 94.66328125 -175.91186523 93.67382812 C-174.82554661 91.71975558 -173.74220568 89.76402464 -172.66186523 87.80664062 C-169.47851075 82.11252517 -166.08503406 76.70506786 -162.27539062 71.40795898 C-161.27576582 70.01613389 -160.29867858 68.60768261 -159.35107422 67.17993164 C-156.80456985 63.378714 -154.60787901 61.52117799 -150.71850586 59.24023438 C-148.78610112 57.76056446 -146.87094288 56.25824112 -144.96850586 54.74023438 C-139.57392302 50.52439668 -134.01303525 46.71383527 -128.22021484 43.06835938 C-123.87305805 40.31928937 -119.60114204 37.486568 -115.38233948 34.54537964 C-112.76508583 32.72200149 -110.13629432 30.91556621 -107.50753784 29.10882568 C-106.20804209 28.20902816 -104.91383029 27.30154243 -103.6255188 26.38580322 C-95.78738068 20.82143959 -89.38657133 17.23271454 -79.74853516 15.7578125 C-76.81603913 15.25689464 -74.44300301 14.4021436 -71.71850586 13.24023438 C-69.26147461 12.82617188 -69.26147461 12.82617188 -66.90600586 12.61523438 C-66.11581055 12.54046875 -65.32561523 12.46570313 -64.51147461 12.38867188 C-63.62395508 12.31519531 -63.62395508 12.31519531 -62.71850586 12.24023438 C-62.71850586 11.58023437 -62.71850586 10.92023438 -62.71850586 10.24023438 C-61.58413086 9.84191406 -60.44975586 9.44359375 -59.28100586 9.03320312 C-57.76015743 8.49808979 -56.23932495 7.96293111 -54.71850586 7.42773438 C-53.9747168 7.16669922 -53.23092773 6.90566406 -52.46459961 6.63671875 C-51.72338867 6.37568359 -50.98217773 6.11464844 -50.21850586 5.84570312 C-49.45924805 5.58192871 -48.69999023 5.3181543 -47.91772461 5.04638672 C-46.54890223 4.544627 -45.19290917 4.00413081 -43.86303711 3.40673828 C-30.9673535 -2.24715285 -13.76434782 0.02176899 0 0 Z " fill="#F6931D" transform="translate(537.718505859375,250.759765625)"/>
<path d="M0 0 C-0.1546875 1.8253125 -0.1546875 1.8253125 -0.3125 3.6875 C-0.30563425 7.15584557 -0.15272839 7.80753969 2.1171875 10.66796875 C3.54417969 11.82232422 3.54417969 11.82232422 5 13 C6.42699219 14.32451172 6.42699219 14.32451172 7.8828125 15.67578125 C14.60478113 21.33490129 20.10324642 23.93319706 29 23.9375 C29.80066895 23.94112549 30.60133789 23.94475098 31.42626953 23.94848633 C37.2434043 23.6765148 39.95433504 22.17115826 44 18 C45.87389219 15.75278316 45.87389219 15.75278316 47.3125 13.4375 C47.80363281 12.69371094 48.29476563 11.94992187 48.80078125 11.18359375 C49.94676192 9.09693839 50.55164453 7.32617367 51 5 C72.81794979 6.14831315 95.49050376 19.01684932 115 28 C115 28.66 115 29.32 115 30 C116.134375 30.28875 117.26875 30.5775 118.4375 30.875 C119.613125 31.24625 120.78875 31.6175 122 32 C122.33 32.66 122.66 33.32 123 34 C124.65051288 35.11634152 124.65051288 35.11634152 126.5625 36.125 C127.696875 36.74375 128.83125 37.3625 130 38 C130 38.66 130 39.32 130 40 C130.639375 40.103125 131.27875 40.20625 131.9375 40.3125 C132.618125 40.539375 133.29875 40.76625 134 41 C134.33 41.99 134.66 42.98 135 44 C135.66 44.165 136.32 44.33 137 44.5 C137.66 44.665 138.32 44.83 139 45 C139.33 45.99 139.66 46.98 140 48 C140.60070312 48.14695312 141.20140625 48.29390625 141.8203125 48.4453125 C146.76765172 49.7043128 149.88361958 55.17922519 153 59 C153.5882959 59.71172363 154.1765918 60.42344727 154.78271484 61.15673828 C156.74361582 63.55827993 158.65672942 65.99204218 160.5625 68.4375 C161.19462402 69.2114209 161.82674805 69.9853418 162.47802734 70.78271484 C166.42758574 75.98327441 167.86027706 79.8656257 167.44506836 86.43237305 C166.77714118 90.28568636 165.52499618 92.82455992 163.5 96.1875 C162.8503125 97.29480469 162.200625 98.40210938 161.53125 99.54296875 C160.77328125 100.75919922 160.77328125 100.75919922 160 102 C159.34 102 158.68 102 158 102 C157.89147705 102.74314453 157.7829541 103.48628906 157.67114258 104.25195312 C156.96093991 107.15993466 156.09044776 108.63199207 154.26171875 110.96875 C153.4109375 112.06352661 153.4109375 112.06352661 152.54296875 113.18041992 C151.93066406 113.94588135 151.31835938 114.71134277 150.6875 115.5 C150.06101562 116.29446533 149.43453125 117.08893066 148.7890625 117.9074707 C143.96455789 123.95698526 138.87755423 129.69647915 133.546875 135.30078125 C131.52677416 137.44171634 129.6162458 139.60239423 127.75 141.875 C125.214382 144.87828241 122.39183226 147.37759734 119.3984375 149.91796875 C116.96432652 152.03096737 114.61023495 154.21153661 112.25756836 156.4140625 C107.41796998 160.9420808 102.56343673 165.29323109 97.2578125 169.27734375 C93.60440765 172.06480316 90.1028213 175.03682195 86.578125 177.984375 C84.13631176 179.89342899 81.66474445 181.42633202 79 183 C77.34350633 184.21476202 75.69824457 185.44493903 74.0625 186.6875 C63.35139959 194.50332293 51.76251344 200.18523978 39.78515625 205.75 C34.48603968 208.21940768 29.2700914 210.84538395 24.07470703 213.52539062 C21.09271501 215.04429613 18.31014036 216.40268144 15 217 C15.33 218.32 15.66 219.64 16 221 C22.63046019 223.12174726 28.4103325 221.85677748 34.6875 219.3125 C35.3779541 219.04429443 36.0684082 218.77608887 36.77978516 218.49975586 C42.15680571 216.3947597 47.46767517 214.13497305 52.7421875 211.78515625 C53.48726562 211.52605469 54.23234375 211.26695312 55 211 C55.66 211.33 56.32 211.66 57 212 C48.09963071 220.13140356 39.20388749 228.19001984 29.73046875 235.65625 C26.97610857 237.88078058 26.97610857 237.88078058 24.98828125 240.46875 C19.02402059 247.46681584 12.68165037 248.04256997 3.9375 248.875 C0.60978952 249.12241519 -2.71787526 249.36269606 -6.04736328 249.58496094 C-8.93813391 249.99130376 -10.68847635 250.74386733 -13.24609375 252.0703125 C-16.75473537 253.38092264 -18.05321843 252.98084392 -21.66870117 251.67944336 C-25.396283 249.96078002 -29.02401168 248.04928609 -32.66662598 246.15899658 C-36.45722661 244.27618948 -40.36585133 242.72600528 -44.3046875 241.18359375 C-45.48143036 240.71960678 -45.48143036 240.71960678 -46.6819458 240.24624634 C-48.27840064 239.61921167 -49.87579786 238.99457112 -51.47412109 238.37231445 C-53.86925306 237.43973765 -56.26102083 236.49893631 -58.65234375 235.55664062 C-67.56603982 232.05555495 -76.51839033 228.67578601 -85.51481628 225.39321899 C-89.36934115 223.9836852 -93.19284508 222.53977127 -96.98046875 220.95703125 C-104.91285575 217.72887376 -113.16367743 215.30328346 -121.3125 212.6875 C-124.90021346 211.53011154 -128.48717277 210.37039272 -132.07421875 209.2109375 C-133.37872986 208.78984459 -133.37872986 208.78984459 -134.70959473 208.36024475 C-144.16226006 205.30705551 -153.58508539 202.16754374 -163 199 C-164.10085938 198.67386719 -165.20171875 198.34773437 -166.3359375 198.01171875 C-172.2305893 195.77313398 -173.59232413 190.94247107 -176.109375 185.49609375 C-178.19488147 181.63963034 -180.6245531 178.19509782 -183.16699219 174.63012695 C-186.05019322 170.49310981 -188.63690593 166.18563079 -191.25 161.875 C-195.26153778 155.32231892 -199.35855924 148.86739879 -203.75 142.5625 C-204.20375 141.90846191 -204.6575 141.25442383 -205.125 140.58056641 C-206.00626553 139.31086515 -206.88776775 138.04132814 -207.76953125 136.77197266 C-214.55812585 126.99585766 -220.37170083 116.8429068 -226 106.375 C-226.33954712 105.74573608 -226.67909424 105.11647217 -227.02893066 104.46813965 C-228.00410496 102.65618994 -228.97215411 100.84063924 -229.9375 99.0234375 C-230.50339844 97.96044434 -231.06929688 96.89745117 -231.65234375 95.80224609 C-235.00598642 88.8288565 -235.53347859 79.84728843 -233.19921875 72.46875 C-231.96806309 70.13336195 -230.58970494 68.10841148 -229 66 C-228.05253906 64.67548828 -228.05253906 64.67548828 -227.0859375 63.32421875 C-217.31625745 50.48153024 -204.80591704 43.0390381 -189.453125 38.7421875 C-186.9545298 37.98624309 -184.59690005 37.06512131 -182.1875 36.0625 C-177.270049 34.03221803 -172.25483171 32.52337086 -167.16015625 31.00390625 C-164.34036423 30.1081256 -161.66099922 29.0872276 -158.9375 27.9375 C-154.35049565 26.03121248 -149.72346593 24.85705297 -144.89453125 23.72265625 C-142.24323316 23.06072623 -139.70438225 22.27236492 -137.125 21.375 C-133.75974417 20.20684465 -130.52840445 19.53693111 -127 19 C-124.66501142 18.33915417 -122.33183607 17.67188497 -120 17 C-117.84310136 16.50033236 -115.68048664 16.03421142 -113.515625 15.5703125 C-110.67821179 14.92704801 -107.8753975 14.18039344 -105.0625 13.4375 C-100.58597493 12.30563525 -96.291143 11.61385373 -91.6940918 11.26000977 C-83.68601225 10.48714119 -75.76032888 8.77959889 -67.86938477 7.2487793 C-45.4134207 2.93129956 -22.93209118 -0.97124151 0 0 Z " fill="#FEFEFE" transform="translate(591,418)"/>
<path d="M0 0 C6.92307692 4.46153846 6.92307692 4.46153846 9 7 C9 7.66 9 8.32 9 9 C9.52464844 9.20496094 10.04929687 9.40992188 10.58984375 9.62109375 C14.0576453 11.60510339 16.69253929 14.3051021 19.5625 17.0625 C23.7833394 21.05539325 28.02186531 24.92999225 32.5625 28.5625 C36.4831861 31.70552306 40.2542183 34.97480515 43.94140625 38.38671875 C44.7797551 39.16199921 44.7797551 39.16199921 45.63504028 39.95294189 C51.74558019 45.64130906 57.66678004 51.51568946 63.55908203 57.42871094 C65.39110995 59.2661576 67.22850605 61.0981165 69.06640625 62.9296875 C74.92592057 68.78604188 80.63406078 74.68226179 86 81 C90.5987784 86.02580782 94.88323963 89.94161981 101 93 C100.97043213 94.12486816 100.94086426 95.24973633 100.91040039 96.40869141 C100.91518777 101.19725456 101.61894983 105.75175884 102.43359375 110.4609375 C102.66337418 111.83966537 102.66337418 111.83966537 102.89779663 113.24624634 C103.23091558 115.24257486 103.56681147 117.23844158 103.90518188 119.23388672 C104.82850054 124.68222371 105.73023648 130.13413211 106.6328125 135.5859375 C106.82408218 136.7389032 107.01535187 137.8918689 107.2124176 139.07977295 C109.72252649 154.27521557 112.05002644 169.49937684 114.38302612 184.72283936 C114.92721851 188.27376234 115.47292247 191.82444823 116.01953125 195.375 C116.18990402 196.4846109 116.36027679 197.5942218 116.53581238 198.73745728 C117.71795364 206.36837054 119.03449724 213.9636763 120.4909668 221.546875 C121 225 121 225 121 232 C36.19 232 -48.62 232 -136 232 C-135.34 231.67 -134.68 231.34 -134 231 C-133.30906104 228.42048126 -133.30906104 228.42048126 -132.875 225.4375 C-132.70742187 224.42558594 -132.53984375 223.41367187 -132.3671875 222.37109375 C-132.24601563 221.58863281 -132.12484375 220.80617188 -132 220 C-131.34 220 -130.68 220 -130 220 C-130 218.35 -130 216.7 -130 215 C-129.34 215 -128.68 215 -128 215 C-127.896875 213.7625 -127.79375 212.525 -127.6875 211.25 C-127.23045856 207.56148246 -126.30571022 205.92647835 -124 203 C-122.85930861 200.0424608 -121.91420083 197.0343687 -121 194 C-120.34 194 -119.68 194 -119 194 C-118.87625 192.906875 -118.7525 191.81375 -118.625 190.6875 C-118 187 -118 187 -116 184 C-115.34 184 -114.68 184 -114 184 C-113.85884766 182.93652344 -113.85884766 182.93652344 -113.71484375 181.8515625 C-112.87455498 178.4995909 -111.4676687 176.25057687 -109.5625 173.375 C-108.94503906 172.43398438 -108.32757813 171.49296875 -107.69140625 170.5234375 C-106.85416016 169.27433594 -106.85416016 169.27433594 -106 168 C-105.34 167.01 -104.68 166.02 -104 165 C-103.34 165 -102.68 165 -102 165 C-102 164.01 -102 163.02 -102 162 C-101.34 162 -100.68 162 -100 162 C-100 161.01 -100 160.02 -100 159 C-99.34 159 -98.68 159 -98 159 C-98 158.01 -98 157.02 -98 156 C-97.34 156 -96.68 156 -96 156 C-95.938125 155.278125 -95.87625 154.55625 -95.8125 153.8125 C-94.74989961 150.13426788 -92.77583027 148.57272074 -90 146 C-89.34 145.01 -88.68 144.02 -88 143 C-87.34 143 -86.68 143 -86 143 C-85.34 141.35 -84.68 139.7 -84 138 C-83.34 138 -82.68 138 -82 138 C-81.896875 137.4225 -81.79375 136.845 -81.6875 136.25 C-80.89103535 133.64338842 -79.80934723 132.0264689 -78 130 C-77.34 130 -76.68 130 -76 130 C-75.8453125 129.1646875 -75.8453125 129.1646875 -75.6875 128.3125 C-74.85821592 125.5230899 -73.65700944 123.3860936 -72 121 C-71.34 121 -70.68 121 -70 121 C-69.34 119.35 -68.68 117.7 -68 116 C-67.34 116 -66.68 116 -66 116 C-65.73703125 115.26007813 -65.4740625 114.52015625 -65.203125 113.7578125 C-63.99742955 110.99410799 -62.68514288 109.16753414 -60.75 106.875 C-57.60196887 102.92225744 -55.19522675 98.92835779 -52.84765625 94.46484375 C-50.39595367 89.8672535 -47.82980709 85.33918641 -45.25 80.8125 C-44.72994385 79.89855469 -44.2098877 78.98460937 -43.67407227 78.04296875 C-40.50577853 72.51399516 -37.20150329 67.10550159 -33.75 61.75 C-29.85070375 55.68477137 -26.72542417 49.44694219 -23.765625 42.87768555 C-21.66626656 38.26006491 -19.27223873 34.18290841 -16.30859375 30.0546875 C-14.35041778 26.98005897 -13.16548057 23.68841749 -11.95703125 20.26171875 C-10.93186904 17.83898846 -9.59830185 16.07736845 -8 14 C-7.29287161 12.29646343 -6.58656281 10.59253754 -5.89453125 8.8828125 C-4.34365263 5.61851776 -2.17296627 2.87771209 0 0 Z " fill="#F6931D" transform="translate(359,661)"/>
<path d="M0 0 C1.31896098 0.36053247 2.63797255 0.7208799 3.95703125 1.08105469 C14.84139884 4.08197037 25.58823463 7.47921705 36.3125 11.0078125 C42.00714905 12.88113254 47.71671974 14.70033361 53.4375 16.4921875 C54.25700638 16.74888718 55.07651276 17.00558685 55.92085266 17.27006531 C57.59010435 17.79283875 59.25935994 18.31559972 60.92861938 18.83834839 C73.86491271 22.8944824 86.76819415 26.99317178 99.51269531 31.62402344 C102.27164878 32.62071343 105.03782022 33.59581277 107.8046875 34.5703125 C119.45484827 38.6919775 130.99035065 43.02804109 142.43823242 47.68310547 C148.01709561 49.94851281 153.61221066 52.14523358 159.25390625 54.25 C160.454104 54.69996338 161.65430176 55.14992676 162.89086914 55.61352539 C165.21598861 56.48150384 167.54452195 57.34040349 169.87670898 58.18920898 C170.91770752 58.57923096 171.95870605 58.96925293 173.03125 59.37109375 C173.95615234 59.71068115 174.88105469 60.05026855 175.83398438 60.40014648 C177.9375 61.5 177.9375 61.5 178.9375 64.5 C178 67.1875 178 67.1875 176.9375 69.5 C176.2775 69.5 175.6175 69.5 174.9375 69.5 C174.81375 68.530625 174.69 67.56125 174.5625 66.5625 C174.35625 65.551875 174.15 64.54125 173.9375 63.5 C169.09884877 61.08067438 162.9470728 61.97319383 157.8828125 63.30078125 C145.15637573 67.91847838 133.32774164 74.87023119 122.9375 83.5 C121.7815554 84.40477132 120.62242038 85.30547441 119.4609375 86.203125 C118.83912598 86.68475098 118.21731445 87.16637695 117.57666016 87.66259766 C116.35080974 88.61153071 115.12397859 89.5591987 113.89599609 90.50537109 C110.32176866 93.29612301 107.09172251 96.22819707 103.9375 99.5 C97.78445207 105.73582436 91.61621005 111.82377381 84.9375 117.5 C83.43574004 118.81048589 81.93571068 120.12295788 80.4375 121.4375 C79.27083333 122.45833333 78.10416667 123.47916667 76.9375 124.5 C72.05306164 120.39978189 67.43795893 116.14850231 62.9375 111.6328125 C62.298125 110.99439423 61.65875 110.35597595 61 109.69821167 C59.65762585 108.35651346 58.31649535 107.0135699 56.9765625 105.66943359 C54.94642102 103.63394452 52.91100711 101.60383877 50.875 99.57421875 C49.56217937 98.26073706 48.24966911 96.94694507 46.9375 95.6328125 C46.339375 95.03671173 45.74125 94.44061096 45.125 93.82644653 C41.41156301 90.09274054 37.89670928 86.23456452 34.46870422 82.2368927 C32.49754543 80.00094581 30.36822906 78.02293698 28.125 76.0625 C26.84689453 74.93521484 26.84689453 74.93521484 25.54296875 73.78515625 C24.68316406 73.03105469 23.82335937 72.27695312 22.9375 71.5 C21.26864119 70.0024393 19.60195611 68.50245254 17.9375 67 C17.11121094 66.2575 16.28492188 65.515 15.43359375 64.75 C13.77527017 63.25517311 12.12157559 61.7551942 10.47265625 60.25 C5.40355358 55.63735681 0.21985025 51.22312177 -5.109375 46.9140625 C-9.06388063 43.68141107 -12.9485453 40.36892919 -16.82348633 37.04150391 C-19.76027876 34.50565901 -19.76027876 34.50565901 -23.0625 32.5 C-23.0625 31.84 -23.0625 31.18 -23.0625 30.5 C-23.784375 30.273125 -24.50625 30.04625 -25.25 29.8125 C-28.705689 28.19984513 -30.69844227 26.48983772 -33.0625 23.5 C-32.9941654 20.69828137 -32.36724372 19.05531077 -31.02978516 16.61816406 C-29.98156819 14.32277526 -29.75596153 12.68076907 -29.6484375 10.171875 C-29.60976563 9.37265625 -29.57109375 8.5734375 -29.53125 7.75 C-29.5003125 6.925 -29.469375 6.1 -29.4375 5.25 C-29.39882813 4.40953125 -29.36015625 3.5690625 -29.3203125 2.703125 C-29.22634164 0.63576618 -29.14334436 -1.43208627 -29.0625 -3.5 C-21.24981118 -7.40634441 -7.87770531 -2.19731112 0 0 Z " fill="#FDFDFD" transform="translate(385.0625,615.5)"/>
<path d="M0 0 C9.29790598 0.1393138 16.97858049 8.20963578 23.25 14.3125 C23.95705078 14.98152344 24.66410156 15.65054688 25.39257812 16.33984375 C30.06713947 20.81191257 34.37419643 25.51071303 38.5625 30.4375 C39.68398438 31.71947266 39.68398438 31.71947266 40.828125 33.02734375 C51.50355534 45.65713437 67.98922782 65.99018715 69.83203125 82.91259766 C69.5625 85.4375 69.5625 85.4375 68.08813477 86.93212891 C67.40033936 87.33866699 66.71254395 87.74520508 66.00390625 88.1640625 C65.23425537 88.63263672 64.46460449 89.10121094 63.67163086 89.58398438 C62.83124268 90.07189453 61.99085449 90.55980469 61.125 91.0625 C59.3665773 92.12659647 57.6087764 93.19172106 55.8515625 94.2578125 C54.96114258 94.79051758 54.07072266 95.32322266 53.15332031 95.87207031 C49.38429291 98.14939821 45.68889157 100.53320347 42 102.9375 C41.31405762 103.38359619 40.62811523 103.82969238 39.92138672 104.28930664 C38.5217292 105.20070015 37.12280685 106.11322364 35.72460938 107.02685547 C34.24082608 107.99493359 32.75503859 108.95994472 31.26757812 109.92236328 C21.51441353 116.23836975 12.26807341 122.72197219 3.5625 130.4375 C-0.36344404 128.47452798 -1.31091849 122.15642095 -2.65625 118.1484375 C-13.10861838 85.45522645 -26.54198885 40.96550807 -10.55078125 8.2421875 C-8.85009233 5.48528126 -6.88445849 3.55378843 -4.4375 1.4375 C-3.4375 0.4375 -3.4375 0.4375 0 0 Z " fill="#FDFDFD" transform="translate(367.4375,176.5625)"/>
<path d="M0 0 C7.10787837 7.29220345 9.85915232 19.38449772 12.81201172 28.78515625 C13.16634277 29.90237061 13.52067383 31.01958496 13.88574219 32.1706543 C16.60455243 41.17831393 17.02345706 47.9327152 14.81201172 57.16015625 C14.55726074 58.26593018 14.55726074 58.26593018 14.29736328 59.39404297 C11.48550481 71.43760544 8.4131183 83.42226401 5.37451172 95.41015625 C3.95912109 95.46623047 3.95912109 95.46623047 2.51513672 95.5234375 C-5.01030914 95.9087766 -11.78196183 96.67081624 -19.03955078 98.88671875 C-21.99706959 99.48537059 -23.77585662 99.39344624 -26.62548828 98.41015625 C-28.13720703 96.81640625 -28.13720703 96.81640625 -29.31298828 94.91015625 C-30.97827015 92.14000674 -30.97827015 92.14000674 -33.62548828 90.41015625 C-34.52812834 88.83275576 -35.37243421 87.22179385 -36.18798828 85.59765625 C-39.12936012 80.05291863 -42.636461 75.2174057 -46.46142578 70.25390625 C-48.834873 67.1350081 -51.00410268 63.92877789 -53.14501953 60.6484375 C-55.42302951 57.20437491 -57.81958999 53.84496642 -60.20751953 50.4765625 C-62.94052945 46.49374639 -63.03220008 43.13632547 -62.62548828 38.41015625 C-61.92722124 35.01356079 -60.95175447 31.7245923 -59.93798828 28.41015625 C-59.66833252 27.50040039 -59.39867676 26.59064453 -59.12084961 25.65332031 C-58.30103397 22.90182161 -57.46511513 20.15566615 -56.62548828 17.41015625 C-56.37508789 16.58064453 -56.1246875 15.75113281 -55.86669922 14.89648438 C-55.18807211 12.64916686 -54.50305847 10.40398403 -53.81298828 8.16015625 C-53.60649658 7.48726562 -53.40000488 6.814375 -53.18725586 6.12109375 C-51.74613082 1.53079879 -51.74613082 1.53079879 -50.62548828 0.41015625 C-48.56896819 0.07894511 -46.50453327 -0.20337191 -44.43798828 -0.46484375 C-39.30912632 -1.16019405 -34.30837006 -2.03140779 -29.25048828 -3.15234375 C-8.62470497 -7.6541851 -8.62470497 -7.6541851 0 0 Z " fill="#0072BB" transform="translate(626.62548828125,682.58984375)"/>
<path d="M0 0 C2.67373535 0.51651706 5.33598081 1.06205418 8 1.625 C8.74378906 1.76550781 9.48757813 1.90601563 10.25390625 2.05078125 C17.16651165 3.55352155 22.4189113 6.43001226 26.62109375 12.2421875 C28.19344783 14.84371879 29.61429498 17.48204227 31 20.1875 C31.51199951 21.15929199 32.02399902 22.13108398 32.55151367 23.13232422 C40.17041853 37.82430195 45.95989897 53.09004045 51.24023438 68.75146484 C51.90515334 70.7193002 52.58422197 72.6823429 53.265625 74.64453125 C54.30256866 77.66895025 55.3053305 80.70150916 56.27832031 83.74707031 C56.80012103 85.37602058 57.32901791 87.00270349 57.86230469 88.62792969 C66.62898156 115.56388505 71.68660844 143.42210193 76 171.375 C76.10613617 172.05314758 76.21227234 172.73129517 76.32162476 173.42999268 C76.61960172 175.35555033 76.90379384 177.28322555 77.1875 179.2109375 C77.34605469 180.28649902 77.50460937 181.36206055 77.66796875 182.47021484 C78.0904604 186.96167388 78 191.48871377 78 196 C66.12 196 54.24 196 42 196 C39.7657289 178.1258312 39.7657289 178.1258312 39.0703125 171.73046875 C38.91597798 170.3277588 38.76125984 168.92509102 38.60620117 167.52246094 C38.48902237 166.46230774 38.48902237 166.46230774 38.36947632 165.3807373 C35.41350289 138.86221296 31.32763734 112.94527074 25 87 C24.7383606 85.92217255 24.7383606 85.92217255 24.47143555 84.8225708 C20.03933198 66.59050838 15.24375108 48.62664288 9.01904297 30.91064453 C7.13794949 25.53776566 5.31861736 20.14427269 3.5 14.75 C3.14929443 13.73075439 2.79858887 12.71150879 2.43725586 11.66137695 C2.11764893 10.71609131 1.79804199 9.77080566 1.46875 8.796875 C1.18451172 7.96510742 0.90027344 7.13333984 0.60742188 6.27636719 C0 4 0 4 0 0 Z " fill="#F6941D" transform="translate(697,697)"/>
<path d="M0 0 C4.19147353 4.64055998 8 10.59845756 8 17 C11.93075644 16.42547254 11.93075644 16.42547254 15 14 C15.30292969 14.85464844 15.60585938 15.70929687 15.91796875 16.58984375 C16.33691406 17.69457031 16.75585938 18.79929687 17.1875 19.9375 C17.59355469 21.03964844 17.99960937 22.14179687 18.41796875 23.27734375 C19.20107422 24.62505859 19.20107422 24.62505859 20 26 C21.65 26.33 23.3 26.66 25 27 C24.34 22.38 23.68 17.76 23 13 C27 13 27 13 29.71875 15.37890625 C32.93901319 19.5950383 32.57237107 23.825841 32.5 28.9375 C32.88620712 49.62199467 39.11933843 68.51910005 46.02612305 87.86474609 C47.26156311 91.84206404 48.09653295 95.93439827 49 100 C27.88 100 6.76 100 -15 100 C-14.835 95.029375 -14.67 90.05875 -14.5 84.9375 C-14.34039524 79.40749079 -14.19815088 73.8772076 -14.0604248 68.34661865 C-14.00227903 66.08850688 -13.93787546 63.83065373 -13.87207031 61.57275391 C-13.75569745 57.46539558 -13.68789207 53.35852604 -13.625 49.25 C-13.58697266 48.02273193 -13.54894531 46.79546387 -13.50976562 45.53100586 C-13.4359087 37.57237897 -14.87616499 31.47092748 -18.01708984 24.14746094 C-19.80686719 18.41626133 -17.74139751 13.94168656 -15.4375 8.625 C-14.98246094 7.56539062 -14.52742187 6.50578125 -14.05859375 5.4140625 C-13.70925781 4.61742187 -13.35992188 3.82078125 -13 3 C-12.01 3 -11.02 3 -10 3 C-10 9.27 -10 15.54 -10 22 C-8.35 21.67 -6.7 21.34 -5 21 C-4.89042969 20.23816406 -4.78085937 19.47632813 -4.66796875 18.69140625 C-3.66551378 12.16322389 -2.27363487 6.20082237 0 0 Z " fill="#028EE6" transform="translate(615,793)"/>
<path d="M0 0 C4.55649975 1.51883325 6.63831629 5.25900613 9.1875 9.0625 C9.66509766 9.76624756 10.14269531 10.46999512 10.63476562 11.19506836 C17.10082048 20.91669167 22.49785983 31.23401263 27 42 C27.495 43.12277344 27.99 44.24554687 28.5 45.40234375 C34.12002525 58.64745533 36.28525107 71.60643528 37 86 C34.02169488 85.53463982 31.50747512 84.8038051 28.6953125 83.68359375 C21.97946472 81.09489974 14.87323198 79.68174272 7.875 78.0625 C7.11778656 77.88602936 6.36057312 77.70955872 5.58041382 77.52774048 C-8.90266651 74.15904479 -23.39036577 71.01067646 -38.16796875 69.23828125 C-39.2041333 69.11300049 -40.24029785 68.98771973 -41.30786133 68.85864258 C-43.28375396 68.62760013 -45.26146982 68.41142098 -47.2409668 68.21362305 C-53.3168254 67.52701449 -57.68128328 66.0392667 -63 63 C-63 62.34 -63 61.68 -63 61 C-60.96949528 59.328715 -58.92316137 57.751892 -56.8125 56.1875 C-50.29828644 51.23143167 -44.59203615 45.78118287 -38.88671875 39.9296875 C-36.07942519 37.05250658 -33.13293057 34.39714337 -30.078125 31.78515625 C-19.02778736 22.29266696 -8.06204652 12.23207058 0 0 Z " fill="#FCFCFC" transform="translate(687,605)"/>
<path d="M0 0 C2.89017639 1.44508819 3.63530369 2.9022455 4.69311523 5.9050293 C4.91813721 6.65824463 5.14315918 7.41145996 5.375 8.1875 C5.75217163 9.38403198 5.75217163 9.38403198 6.13696289 10.60473633 C8.93570429 20.92923767 8.98442881 31.25756168 9.13842773 41.89477539 C9.18692976 45.08746346 9.26272817 48.27864284 9.34179688 51.47070312 C9.55726968 61.88549021 9.4171107 72.18404459 8.51171875 82.56640625 C8.43258743 83.49380112 8.35345612 84.42119598 8.27192688 85.37669373 C7.63221438 91.80167843 7.63221438 91.80167843 5.375 95.1875 C4.61058594 94.46046875 3.84617187 93.7334375 3.05859375 92.984375 C-9.03365424 81.5904926 -21.80824815 71.41420107 -35.625 62.1875 C-35.05199845 56.8647989 -33.77128748 52.34355829 -31.8125 47.375 C-31.54115234 46.67286377 -31.26980469 45.97072754 -30.99023438 45.24731445 C-30.45030825 43.85373434 -29.90727319 42.46135396 -29.36083984 41.0703125 C-28.74318062 39.48989182 -28.14468427 37.90200044 -27.55078125 36.3125 C-23.97746398 26.90427224 -19.23489654 18.67693924 -13.0625 10.75 C-12.60351318 10.15864258 -12.14452637 9.56728516 -11.67163086 8.95800781 C-4.77957781 0.34139842 -4.77957781 0.34139842 0 0 Z " fill="#FEFEFE" transform="translate(680.625,201.8125)"/>
<path d="M0 0 C-0.24298591 11.2966624 -3.24267008 21.87915587 -6.0625 32.75 C-6.54059428 34.62217114 -7.0178149 36.49456561 -7.49414062 38.3671875 C-8.6527055 42.91409541 -9.82304633 47.45781887 -11 52 C-12.00595215 52.05333496 -13.0119043 52.10666992 -14.04833984 52.16162109 C-15.39422454 52.2402386 -16.74008943 52.31919553 -18.0859375 52.3984375 C-19.40126465 52.47239746 -20.7165918 52.54635742 -22.07177734 52.62255859 C-26.71878136 53.06906376 -30.96179263 54.11718598 -35.4140625 55.4765625 C-38.37158131 56.07521434 -40.15036834 55.98328999 -43 55 C-44.51171875 53.40625 -44.51171875 53.40625 -45.6875 51.5 C-47.35278187 48.72985049 -47.35278187 48.72985049 -50 47 C-51.03261823 45.25979379 -52.00319678 43.48240823 -52.9375 41.6875 C-54.39832269 38.88914656 -55.78300282 36.28615564 -57.69140625 33.76953125 C-59 32 -59 32 -59 30 C-58.28158936 29.6282666 -57.56317871 29.2565332 -56.82299805 28.87353516 C-53.44415108 27.1246942 -50.06569534 25.37509926 -46.6875 23.625 C-46.07486298 23.30764893 -45.46222595 22.99029785 -44.83102417 22.66333008 C-37.06000588 18.63682455 -29.30044812 14.58979398 -21.5625 10.5 C-1.67478814 0 -1.67478814 0 0 0 Z " fill="#028EE6" transform="translate(643,726)"/>
<path d="M0 0 C2.97494762 4.46242143 4.13633824 9.39577635 5.6875 14.5 C6.02072266 15.55832031 6.35394531 16.61664062 6.69726562 17.70703125 C7.00728516 18.72152344 7.31730469 19.73601563 7.63671875 20.78125 C8.06537231 22.1744043 8.06537231 22.1744043 8.50268555 23.59570312 C9 26 9 26 8 29 C5.48168945 30.52709961 5.48168945 30.52709961 2.11328125 32.15234375 C1.50792542 32.44877274 0.90256958 32.74520172 0.27886963 33.0506134 C-1.02614571 33.68885493 -2.33329447 34.3227487 -3.64230347 34.95275879 C-7.07918119 36.60758026 -10.50043996 38.29400465 -13.921875 39.98046875 C-14.60877914 40.31833405 -15.29568329 40.65619934 -16.00340271 41.00430298 C-23.14649283 44.5346003 -30.13010767 48.339689 -37.08276367 52.23022461 C-41.6414446 54.76961802 -46.15962419 57.04560869 -51 59 C-64 42.38095238 -64 42.38095238 -64 38 C-57.375 34 -57.375 34 -54 34 C-54 33.34 -54 32.68 -54 32 C-53.01644531 31.48953125 -52.03289063 30.9790625 -51.01953125 30.453125 C-37.67914436 23.48363323 -24.6344683 16.02284264 -11.625 8.45703125 C-10.97362061 8.08006104 -10.32224121 7.70309082 -9.65112305 7.31469727 C-7.93841932 6.3229165 -6.22884734 5.32573297 -4.51953125 4.328125 C-2 3 -2 3 0 3 C0 2.01 0 1.02 0 0 Z " fill="#0072BB" transform="translate(634,698)"/>
<path d="M0 0 C4.19147353 4.64055998 8 10.59845756 8 17 C11.93075644 16.42547254 11.93075644 16.42547254 15 14 C15.30292969 14.85464844 15.60585938 15.70929687 15.91796875 16.58984375 C16.33691406 17.69457031 16.75585938 18.79929687 17.1875 19.9375 C17.59355469 21.03964844 17.99960937 22.14179687 18.41796875 23.27734375 C19.20107422 24.62505859 19.20107422 24.62505859 20 26 C21.65 26.33 23.3 26.66 25 27 C24.34 22.38 23.68 17.76 23 13 C27 13 27 13 29.69921875 15.2578125 C33.24141232 19.87311029 32.78155208 25.29061995 32.8125 30.875 C32.83763672 31.94492187 32.86277344 33.01484375 32.88867188 34.1171875 C32.94733201 36.74516165 32.9837667 39.37147825 33 42 C31.80375 42.34160156 30.6075 42.68320312 29.375 43.03515625 C22.51247242 45.32400788 16.30957584 48.95592461 10 52.4375 C2.44937448 56.58198541 -5.05310057 60.65168354 -13 64 C-13.00410889 63.19481934 -13.00821777 62.38963867 -13.01245117 61.56005859 C-12.7149868 42.08097976 -12.7149868 42.08097976 -18.0390625 23.62890625 C-19.99572967 18.2759103 -17.59752383 13.60967038 -15.4375 8.625 C-14.98246094 7.56539062 -14.52742187 6.50578125 -14.05859375 5.4140625 C-13.70925781 4.61742187 -13.35992188 3.82078125 -13 3 C-12.01 3 -11.02 3 -10 3 C-10 9.27 -10 15.54 -10 22 C-8.35 21.67 -6.7 21.34 -5 21 C-4.89042969 20.23816406 -4.78085937 19.47632813 -4.66796875 18.69140625 C-3.66551378 12.16322389 -2.27363487 6.20082237 0 0 Z " fill="#0073BB" transform="translate(615,793)"/>
<path d="M0 0 C2.89591791 2.23432544 4.87164317 4.48807073 6.94921875 7.50390625 C6.94921875 8.16390625 6.94921875 8.82390625 6.94921875 9.50390625 C7.60921875 9.50390625 8.26921875 9.50390625 8.94921875 9.50390625 C10.94137224 15.48036673 10.97864848 22.15655092 8.19921875 27.87890625 C5.58297321 32.37442676 3.05085978 36.69364653 -2.05078125 38.50390625 C-3.04078125 38.50390625 -4.03078125 38.50390625 -5.05078125 38.50390625 C-5.05078125 39.16390625 -5.05078125 39.82390625 -5.05078125 40.50390625 C-7.44730653 40.58529767 -9.84103561 40.64457634 -12.23828125 40.69140625 C-13.24858398 40.72911133 -13.24858398 40.72911133 -14.27929688 40.76757812 C-20.25607025 40.8550431 -23.17066851 39.1490049 -27.55078125 35.31640625 C-33.37425076 28.76500306 -35.84607379 24.26999246 -35.39453125 15.26171875 C-34.46755526 7.82484322 -29.59715353 3.15432609 -24.05078125 -1.49609375 C-16.38220938 -5.58599875 -7.16821607 -4.51713437 0 0 Z " fill="#0A0602" transform="translate(525.05078125,341.49609375)"/>
<path d="M0 0 C5.56452114 4.04127233 9.66118043 8.23317516 11.91015625 14.8359375 C12.54294774 21.14524089 12.02944713 26.8754319 9.91015625 32.8359375 C9.25015625 32.8359375 8.59015625 32.8359375 7.91015625 32.8359375 C7.72453125 33.5371875 7.53890625 34.2384375 7.34765625 34.9609375 C5.3418679 38.9725142 2.78934084 41.57055431 -1.08984375 43.8359375 C-5.61427831 44.82137306 -10.09327161 44.16727125 -14.08984375 41.8359375 C-15.47216818 40.20967346 -16.8092189 38.5434373 -18.08984375 36.8359375 C-19.07984375 36.1759375 -20.06984375 35.5159375 -21.08984375 34.8359375 C-24.1954355 27.7285094 -24.42043797 18.75762408 -22.40234375 11.29296875 C-20.22668448 6.60623606 -16.99260529 3.16954632 -13.08984375 -0.1640625 C-8.66001433 -1.57672464 -4.22550944 -2.35364825 0 0 Z " fill="#0C0802" transform="translate(668.08984375,338.1640625)"/>
<path d="M0 0 C1.0929261 -0.00855011 1.0929261 -0.00855011 2.20793152 -0.01727295 C3.7451331 -0.02668693 5.28235453 -0.03324255 6.81958008 -0.03710938 C9.15026732 -0.04680139 11.48006665 -0.07785207 13.81054688 -0.109375 C15.31119274 -0.11590778 16.81184484 -0.12115717 18.3125 -0.125 C18.99923294 -0.1373468 19.68596588 -0.1496936 20.39350891 -0.16241455 C25.21065446 -0.14064115 31.74527956 0.59293581 35.35546875 4.203125 C36.31297089 9.00050687 36.09534197 12.83831032 33.74609375 17.171875 C25.86072628 28.19953176 25.86072628 28.19953176 20.48461914 29.73876953 C10.78843974 31.33737441 3.33694005 29.95851377 -4.71630859 24.28466797 C-15.07128679 16.34961392 -15.07128679 16.34961392 -16.64453125 13.203125 C-17.02778461 9.1406394 -17.04486418 6.8851737 -14.95703125 3.328125 C-10.74266136 -0.54453923 -5.4805158 0.03361913 0 0 Z " fill="#010100" transform="translate(606.64453125,412.796875)"/>
<path d="M0 0 C4.00453994 9.58463657 6.44694815 18.78779259 9 29 C-11.79 29 -32.58 29 -54 29 C-48.375 24.5 -48.375 24.5 -44 24 C-44 23.34 -44 22.68 -44 22 C-43.43829102 21.72438232 -42.87658203 21.44876465 -42.29785156 21.16479492 C-30.76826141 15.49237688 -19.35819612 9.68335595 -8.17285156 3.35424805 C-7.3887793 2.9137915 -6.60470703 2.47333496 -5.796875 2.01953125 C-5.10948242 1.62870361 -4.42208984 1.23787598 -3.71386719 0.83520508 C-2 0 -2 0 0 0 Z " fill="#028EE5" transform="translate(655,864)"/>
<path d="M0 0 C-0.24234375 0.95777344 -0.4846875 1.91554688 -0.734375 2.90234375 C-3.25709632 12.91201467 -5.66069619 22.94597085 -8 33 C-8.94359375 33.03738281 -9.8871875 33.07476563 -10.859375 33.11328125 C-18.38482086 33.49862035 -25.15647355 34.26065999 -32.4140625 36.4765625 C-35.37158131 37.07521434 -37.15036834 36.98328999 -40 36 C-41.51171875 34.40625 -41.51171875 34.40625 -42.6875 32.5 C-44.35278187 29.72985049 -44.35278187 29.72985049 -47 28 C-47.625 25.9375 -47.625 25.9375 -48 24 C-41.67265689 20.65521692 -35.33781869 17.32488682 -29 14 C-27.83919922 13.39027344 -26.67839844 12.78054688 -25.48242188 12.15234375 C-22.41276269 10.54081934 -19.34052512 8.9342941 -16.26675415 7.33062744 C-15.04657969 6.69319158 -13.82715744 6.05431378 -12.60848999 5.41400146 C-10.88554594 4.50912086 -9.15962953 3.60990668 -7.43359375 2.7109375 C-6.43384521 2.18806152 -5.43409668 1.66518555 -4.40405273 1.12646484 C-2 0 -2 0 0 0 Z " fill="#015486" transform="translate(640,745)"/>
<path d="M0 0 C1.61989062 3.54351073 2.10414268 6.12719419 2 10 C0.48599609 10.83917969 0.48599609 10.83917969 -1.05859375 11.6953125 C-11.46364708 17.46718152 -21.85124679 23.26975196 -32.23022461 29.08837891 C-34.22324381 30.20553999 -36.21694644 31.32148296 -38.21142578 32.43603516 C-40.03676471 33.45977191 -41.85823602 34.49044296 -43.67529297 35.52880859 C-44.48240723 35.98723145 -45.28952148 36.4456543 -46.12109375 36.91796875 C-46.82548584 37.32168701 -47.52987793 37.72540527 -48.25561523 38.14135742 C-50 39 -50 39 -52 39 C-52 39.66 -52 40.32 -52 41 C-57.445 43.475 -57.445 43.475 -63 46 C-68 38.375 -68 38.375 -68 35 C-67.34 35 -66.68 35 -66 35 C-66 34.34 -66 33.68 -66 33 C-65.44876465 32.72961914 -64.8975293 32.45923828 -64.32958984 32.18066406 C-53.73042654 26.9673877 -43.21636157 21.64743146 -32.875 15.9375 C-25.56528099 11.90618274 -18.21024278 7.99633637 -10.75 4.25 C-9.89776855 3.81937256 -9.04553711 3.38874512 -8.16748047 2.94506836 C-7.38518066 2.55585205 -6.60288086 2.16663574 -5.796875 1.765625 C-5.10948242 1.42305664 -4.42208984 1.08048828 -3.71386719 0.72753906 C-2 0 -2 0 0 0 Z " fill="#028EE6" transform="translate(632,691)"/>
<path d="M0 0 C3 1 3 1 4.75 3.375 C6 6 6 6 5 9 C3.0324707 10.25170898 3.0324707 10.25170898 0.42578125 11.49609375 C-0.54101562 11.9662793 -1.5078125 12.43646484 -2.50390625 12.92089844 C-3.55449219 13.42137695 -4.60507812 13.92185547 -5.6875 14.4375 C-14.07084347 18.52137156 -22.34100719 22.73394431 -30.5 27.25 C-37.0333787 30.85363347 -43.58323031 34.39828307 -50.25 37.75 C-51.24290039 38.25321777 -51.24290039 38.25321777 -52.25585938 38.76660156 C-56.75156756 41 -56.75156756 41 -59 41 C-59 41.66 -59 42.32 -59 43 C-59.66 43 -60.32 43 -61 43 C-60.85769192 41.58297487 -60.71099254 40.1663904 -60.5625 38.75 C-60.48128906 37.96109375 -60.40007813 37.1721875 -60.31640625 36.359375 C-60.21199219 35.58078125 -60.10757813 34.8021875 -60 34 C-59.96648438 33.36489502 -59.93296875 32.72979004 -59.8984375 32.07543945 C-58.46024501 28.75313663 -55.44345759 27.86443694 -52.30859375 26.43359375 C-50.84065703 25.73229012 -49.37306491 25.03026488 -47.90576172 24.32763672 C-46.7174173 23.76674347 -46.7174173 23.76674347 -45.50506592 23.19451904 C-41.06763844 21.07857008 -36.68017997 18.86245583 -32.28515625 16.66015625 C-30.42791439 15.73336313 -28.57049108 14.80693353 -26.71289062 13.88085938 C-25.78581299 13.41832764 -24.85873535 12.9557959 -23.90356445 12.47924805 C-21.98300911 11.52152847 -20.06210109 10.56451585 -18.14086914 9.6081543 C-15.33387119 8.21067183 -12.52814012 6.81067524 -9.72265625 5.41015625 C-8.85931168 4.98106461 -7.9959671 4.55197296 -7.10646057 4.10987854 C-6.31730759 3.71533981 -5.5281546 3.32080109 -4.71508789 2.91430664 C-3.67161949 2.3942379 -3.67161949 2.3942379 -2.60707092 1.86366272 C-1.00739287 1.10343481 -1.00739287 1.10343481 0 0 Z " fill="#015486" transform="translate(625,683)"/>
<path d="M0 0 C0.99 3.96 0.99 3.96 2 8 C-38.57965627 29.45136519 -38.57965627 29.45136519 -58 39 C-60.475 35.04 -60.475 35.04 -63 31 C-51.76179382 24.30605041 -40.15581281 18.40766615 -28.45532227 12.56982422 C-25.27702277 10.9822793 -22.10426113 9.38401469 -18.93164062 7.78515625 C-16.90917788 6.77279054 -14.88640297 5.76104817 -12.86328125 4.75 C-11.91649002 4.27199951 -10.96969879 3.79399902 -9.99421692 3.30151367 C-8.68090645 2.64953003 -8.68090645 2.64953003 -7.34106445 1.984375 C-6.5727681 1.59991211 -5.80447174 1.21544922 -5.01289368 0.81933594 C-3 0 -3 0 0 0 Z " fill="#015487" transform="translate(641,718)"/>
<path d="M0 0 C2.6855594 2.6855594 3.06049974 5.37621328 4 9 C-0.69499833 11.49144236 -5.39065901 13.98163042 -10.08691406 16.47070312 C-11.68149385 17.31606918 -13.27589816 18.16176631 -14.87011719 19.0078125 C-17.17335704 20.23005743 -19.47724394 21.45107517 -21.78125 22.671875 C-22.48366821 23.04495789 -23.18608643 23.41804077 -23.90979004 23.8024292 C-25.93627325 24.87532621 -27.96653081 25.94040655 -30 27 C-30.73275146 27.38240845 -31.46550293 27.76481689 -32.22045898 28.15881348 C-32.93596924 28.52567261 -33.65147949 28.89253174 -34.38867188 29.27050781 C-35.03380737 29.60270325 -35.67894287 29.93489868 -36.34362793 30.27716064 C-38 31 -38 31 -40 31 C-40 31.66 -40 32.32 -40 33 C-41.60875 33.680625 -41.60875 33.680625 -43.25 34.375 C-45.88062317 35.50088537 -48.46000396 36.67920206 -51 38 C-51.19355543 33.16111413 -51.20943086 29.35207792 -49 25 C-46.22265846 22.98701414 -43.18304518 21.65176871 -40.0625 20.25 C-38.24248672 19.38883506 -36.42350087 18.52549586 -34.60546875 17.66015625 C-33.21013916 17.00490967 -33.21013916 17.00490967 -31.78662109 16.33642578 C-27.41808449 14.24133472 -23.14857832 11.96851599 -18.875 9.6875 C-12.62438539 6.37301254 -6.35797975 3.10543998 0 0 Z " fill="#015486" transform="translate(651,855)"/>
<path d="M0 0 C0.33 0 0.66 0 1 0 C1.66 3.96 2.32 7.92 3 12 C-8.13614652 17.90144835 -19.30730912 23.73479372 -30.50119019 29.52587891 C-31.92011193 30.26020399 -33.33866947 30.99523321 -34.75686646 31.73095703 C-36.76654862 32.77320329 -38.77760196 33.81275345 -40.7890625 34.8515625 C-41.40177505 35.16985016 -42.01448761 35.48813782 -42.64576721 35.81607056 C-46.88561054 38 -46.88561054 38 -48 38 C-48 34.7 -48 31.4 -48 28 C-41.375 24 -41.375 24 -38 24 C-38 23.34 -38 22.68 -38 22 C-36.99324219 21.47792969 -35.98648438 20.95585938 -34.94921875 20.41796875 C-25.84565677 15.66319332 -16.89947681 10.70615382 -8.07104492 5.45581055 C-7.30638916 5.0050415 -6.5417334 4.55427246 -5.75390625 4.08984375 C-5.07658447 3.68628662 -4.3992627 3.28272949 -3.70141602 2.86694336 C-2 2 -2 2 0 2 C0 1.34 0 0.68 0 0 Z " fill="#0073BB" transform="translate(649,843)"/>
<path d="M0 0 C0.495 5.445 0.495 5.445 1 11 C-0.19625 11.34160156 -1.3925 11.68320312 -2.625 12.03515625 C-9.48752758 14.32400788 -15.69042416 17.95592461 -22 21.4375 C-29.55062552 25.58198541 -37.05310057 29.65168354 -45 33 C-45 29.37 -45 25.74 -45 22 C-41.12697982 19.99063342 -37.25324283 17.98265681 -33.37890625 15.97583008 C-32.06784794 15.29650125 -30.75696825 14.61682758 -29.44628906 13.93676758 C-24.96949809 11.6141314 -20.48775902 9.30137513 -16 7 C-15.33665649 6.65946594 -14.67331299 6.31893188 -13.98986816 5.96807861 C-12.05035499 4.97517212 -10.10780849 3.98849608 -8.1640625 3.00390625 C-7.02662598 2.42584229 -5.88918945 1.84777832 -4.71728516 1.25219727 C-2 0 -2 0 0 0 Z " fill="#015487" transform="translate(647,824)"/>
<path d="M0 0 C3.80356529 1.37545903 5.46852637 2.58723165 8.1171875 5.765625 C9.47402899 9.99713065 9.64757674 13.4396519 7.9921875 17.578125 C3.0130142 23.38716052 3.0130142 23.38716052 -0.99609375 24.1875 C-5.23635876 24.44405385 -8.03404092 24.10998891 -11.3828125 21.390625 C-15.11560114 17.47119693 -15.47574999 14.69574957 -15.4140625 9.390625 C-14.58420278 5.29014167 -12.51849305 3.38158584 -9.23828125 0.92578125 C-5.91706185 -0.71004323 -3.58701412 -0.76953244 0 0 Z " fill="#F7F7F7" transform="translate(515.8828125,348.234375)"/>
<path d="M0 0 C4.19147353 4.64055998 8 10.59845756 8 17 C11.93075644 16.42547254 11.93075644 16.42547254 15 14 C15.495 15.485 15.495 15.485 16 17 C12.33393878 18.91782632 8.66704149 20.83404879 5 22.75 C3.97003906 23.28882813 2.94007813 23.82765625 1.87890625 24.3828125 C-3.72226291 27.30826391 -9.33712305 30.19578689 -15 33 C-15.70453003 31.13133238 -16.38791688 29.25468584 -17.0625 27.375 C-17.44535156 26.33085938 -17.82820312 25.28671875 -18.22265625 24.2109375 C-19.63390772 18.38154701 -17.76057668 13.98594618 -15.4375 8.625 C-14.98246094 7.56539062 -14.52742187 6.50578125 -14.05859375 5.4140625 C-13.70925781 4.61742187 -13.35992188 3.82078125 -13 3 C-12.01 3 -11.02 3 -10 3 C-10 9.27 -10 15.54 -10 22 C-8.35 21.67 -6.7 21.34 -5 21 C-4.89042969 20.23816406 -4.78085937 19.47632813 -4.66796875 18.69140625 C-3.66551378 12.16322389 -2.27363487 6.20082237 0 0 Z " fill="#015486" transform="translate(615,793)"/>
<path d="M0 0 C-1.0586127 6.75710231 -2.22125844 13.39324562 -4 20 C-5.41539062 20.05607422 -5.41539062 20.05607422 -6.859375 20.11328125 C-14.38482086 20.49862035 -21.15647355 21.26065999 -28.4140625 23.4765625 C-31.40279626 24.08153278 -33.15241738 24.11765188 -36 23 C-37.14306641 20.44384766 -37.14306641 20.44384766 -38 18 C-37.07662842 17.52578613 -36.15325684 17.05157227 -35.2019043 16.56298828 C-31.77372256 14.80178333 -28.34676293 13.03821188 -24.92016602 11.27392578 C-23.43742527 10.51091015 -21.95435463 9.74853522 -20.47094727 8.98681641 C-18.33783139 7.89133607 -16.20591555 6.79355114 -14.07421875 5.6953125 C-13.41161545 5.3556546 -12.74901215 5.0159967 -12.06632996 4.66604614 C-3.02490242 0 -3.02490242 0 0 0 Z " fill="#028DE5" transform="translate(636,758)"/>
<path d="M0 0 C3 1 3 1 4.25 3.25 C5.1112154 6.40778981 5.00818355 7.90474713 4 11 C2.11743164 12.58984375 2.11743164 12.58984375 -0.33984375 13.9375 C-1.23896484 14.44023438 -2.13808594 14.94296875 -3.06445312 15.4609375 C-4.01255859 15.96882812 -4.96066406 16.47671875 -5.9375 17 C-6.85080078 17.50789062 -7.76410156 18.01578125 -8.70507812 18.5390625 C-14.72186526 21.86043119 -20.83684797 24.96033119 -27 28 C-27.33 23.71 -27.66 19.42 -28 15 C-26.39769531 14.16855469 -24.79539062 13.33710937 -23.14453125 12.48046875 C-21.03381153 11.38289449 -18.9231368 10.28523371 -16.8125 9.1875 C-15.75740234 8.64029297 -14.70230469 8.09308594 -13.61523438 7.52929688 C-12.08286133 6.73168945 -12.08286133 6.73168945 -10.51953125 5.91796875 C-9.58214111 5.43094482 -8.64475098 4.9439209 -7.67895508 4.44213867 C-4.95732778 3.02716034 -4.95732778 3.02716034 -2.3425293 1.25512695 C-1.56949463 0.84093506 -0.79645996 0.42674316 0 0 Z " fill="#028EE5" transform="translate(629,810)"/>
<path d="M0 0 C0.83496015 2.81202652 1.66804276 5.62458512 2.5 8.4375 C2.73847656 9.23994141 2.97695313 10.04238281 3.22265625 10.86914062 C5 16.88671875 5 16.88671875 5 18 C-7.87 18 -20.74 18 -34 18 C-29.04204908 14.28153681 -23.73128719 11.36856503 -18.32739258 8.36499023 C-16.43641701 7.31189687 -14.55120497 6.24895557 -12.66601562 5.18554688 C-11.46388171 4.515015 -10.26141885 3.84507245 -9.05859375 3.17578125 C-7.96861084 2.56645752 -6.87862793 1.95713379 -5.75561523 1.3293457 C-3 0 -3 0 0 0 Z " fill="#0072BB" transform="translate(659,875)"/>
<path d="M0 0 C3.31469067 1.481032 4.65780541 3.02709938 6.2421875 6.2890625 C8.05231531 11.5567378 7.41832006 15.79383987 5.25 20.75 C3.79138857 23.3487936 3.18176615 24.18097207 0.5 25.625 C-3.27208424 25.16498973 -4.65489432 23.12137329 -7.0625 20.3125 C-7.3925 19.9825 -7.7225 19.6525 -8.0625 19.3125 C-9.29827606 6.97239334 -9.29827606 6.97239334 -5.9375 2.4375 C-3.0625 0.3125 -3.0625 0.3125 0 0 Z " fill="#F7F7F7" transform="translate(663.0625,346.6875)"/>
<path d="M0 0 C2.625 -0.1875 2.625 -0.1875 5 0 C7.19385228 6.28725959 7.42769342 12.31539778 7.625 18.9375 C7.66367187 20.00291016 7.70234375 21.06832031 7.7421875 22.16601562 C7.83586146 24.77717734 7.92158335 27.38834304 8 30 C6.35 29.67 4.7 29.34 3 29 C2.86722656 27.72382813 2.73445312 26.44765625 2.59765625 25.1328125 C2.41947335 23.46352004 2.24107686 21.79425036 2.0625 20.125 C1.97548828 19.28324219 1.88847656 18.44148438 1.79882812 17.57421875 C1.71181641 16.76855469 1.62480469 15.96289062 1.53515625 15.1328125 C1.456604 14.38918457 1.37805176 13.64555664 1.29711914 12.87939453 C1.08362653 10.91553684 1.08362653 10.91553684 0 9 C-1.21236328 10.40765625 -1.21236328 10.40765625 -2.44921875 11.84375 C-3.52791556 13.0631464 -4.60738319 14.28186123 -5.6875 15.5 C-6.21794922 16.12003906 -6.74839844 16.74007813 -7.29492188 17.37890625 C-11.35216114 21.90907525 -11.35216114 21.90907525 -14.89453125 22.40625 C-15.58933594 22.2721875 -16.28414062 22.138125 -17 22 C-17 18 -17 18 -15.65478516 16.21655273 C-15.03909668 15.62817627 -14.4234082 15.0397998 -13.7890625 14.43359375 C-13.12132812 13.78326172 -12.45359375 13.13292969 -11.765625 12.46289062 C-11.05921875 11.79451172 -10.3528125 11.12613281 -9.625 10.4375 C-8.24012494 9.1050049 -6.85722821 7.77044988 -5.4765625 6.43359375 C-4.85861816 5.84634521 -4.24067383 5.25909668 -3.60400391 4.65405273 C-1.79466943 2.88812163 -1.79466943 2.88812163 0 0 Z " fill="#0D0D0D" transform="translate(618,467)"/>
<path d="M0 0 C0.0534668 3.17675781 0.0534668 3.17675781 -1 7 C-3.65182594 9.29692318 -6.70011353 10.67593871 -9.85546875 12.171875 C-10.7498616 12.62097229 -11.64425446 13.07006958 -12.56575012 13.53277588 C-15.42820801 14.96310896 -18.30686569 16.35669545 -21.1875 17.75 C-23.10860043 18.70205263 -25.02853849 19.6564546 -26.94726562 20.61328125 C-31.24962588 22.75308912 -35.56248933 24.86966302 -39.8868103 26.96472168 C-41.75988026 27.88236231 -43.61630951 28.83379873 -45.4699707 29.79003906 C-48 31 -48 31 -50 31 C-50.33 30.01 -50.66 29.02 -51 28 C-48.10368606 26.3909367 -45.20736862 24.78187971 -42.31103516 23.17285156 C-39.8444831 21.80255404 -37.37802028 20.43209609 -34.91162109 19.06152344 C-29.40085292 15.99935348 -23.88975808 12.93779412 -18.375 9.8828125 C-17.5607959 9.43147949 -16.7465918 8.98014648 -15.90771484 8.51513672 C-14.42926582 7.6957439 -12.950448 6.87701602 -11.47119141 6.05908203 C-8.64746556 4.49341764 -5.84759054 2.9076554 -3.0859375 1.234375 C-1 0 -1 0 0 0 Z " fill="#0073BC" transform="translate(641,738)"/>
<path d="M0 0 C-19.42601729 10.90689268 -19.42601729 10.90689268 -28 15 C-27.07194245 5.71942446 -27.07194245 5.71942446 -25 3 C-22.0234375 2.2421875 -22.0234375 2.2421875 -18.375 1.875 C-14.25235275 1.40565247 -10.30835858 0.94030308 -6.3125 -0.1875 C-3 -1 -3 -1 0 0 Z " fill="#028DE5" transform="translate(601,680)"/>
<path d="M0 0 C5.58598692 4.01737617 10.70283114 8.32424114 15.6875 13.0625 C16.32494141 13.66126953 16.96238281 14.26003906 17.61914062 14.87695312 C19.42179823 16.57543237 21.21229358 18.28581061 23 20 C24.43279297 21.35931641 24.43279297 21.35931641 25.89453125 22.74609375 C28 25 28 25 29 28 C29.66 28 30.32 28 31 28 C31 28.66 31 29.32 31 30 C31.53625 30.226875 32.0725 30.45375 32.625 30.6875 C39.35543221 34.40694938 43.51136518 39.90448703 48 46 C47.34 46.66 46.68 47.32 46 48 C45.36400879 47.29399658 44.72801758 46.58799316 44.07275391 45.8605957 C37.2803383 38.3624339 30.28303616 31.09673313 23.12890625 23.94360352 C21.36428665 22.17677323 19.60787439 20.40203736 17.8515625 18.62695312 C11.87925432 12.62605578 5.91828121 6.92890905 -1 2 C-0.67 1.34 -0.34 0.68 0 0 Z " fill="#482C0B" transform="translate(394,690)"/>
<path d="M0 0 C0 0.99 0 1.98 0 3 C-1.34191406 3.65355469 -1.34191406 3.65355469 -2.7109375 4.3203125 C-12.86324203 9.30276202 -22.42077458 14.44713903 -31.1875 21.6796875 C-33 23 -33 23 -35 23 C-35 23.66 -35 24.32 -35 25 C-36.6796875 26.5078125 -36.6796875 26.5078125 -38.875 28.125 C-39.59429687 28.66382813 -40.31359375 29.20265625 -41.0546875 29.7578125 C-43 31 -43 31 -45 31 C-45.28875 31.61875 -45.5775 32.2375 -45.875 32.875 C-47 35 -47 35 -49 37 C-49.99 36.67 -50.98 36.34 -52 36 C-45.58551956 29.32547306 -38.24216006 23.74075891 -31 18 C-30.04480469 17.23816406 -29.08960938 16.47632813 -28.10546875 15.69140625 C-19.81178164 9.35966663 -9.95612268 3.31870756 0 0 Z " fill="#393838" transform="translate(540,679)"/>
<path d="M0 0 C0.99 0 1.98 0 3 0 C3 5.61 3 11.22 3 17 C-3 20 -3 20 -5 20 C-6.41671487 14.73791618 -5.33185656 11.38220698 -3.0625 6.625 C-2.77181641 5.98433594 -2.48113281 5.34367188 -2.18164062 4.68359375 C-1.46808327 3.11610711 -0.73590019 1.55712215 0 0 Z " fill="#0072BA" transform="translate(602,796)"/>
<path d="M0 0 C6 7.2 6 7.2 6 12 C4.71086513 12.67154933 3.41859796 13.33708859 2.125 14 C1.40570312 14.37125 0.68640625 14.7425 -0.0546875 15.125 C-2 16 -2 16 -4 16 C-2.84941444 10.60204011 -1.57578241 5.29012667 0 0 Z " fill="#006EB4" transform="translate(615,793)"/>
<path d="M0 0 C9 9 18 18 27 27 C26.01 27.33 25.02 27.66 24 28 C19.2367688 23.48746518 19.2367688 23.48746518 17.9375 20.8125 C17.16049595 18.85870594 17.16049595 18.85870594 15.25390625 18.18359375 C8.54260422 14.65928783 2.77005683 7.51191635 -1 1 C-0.67 0.67 -0.34 0.34 0 0 Z " fill="#2F2F2E" transform="translate(423,701)"/>
<path d="M0 0 C0 0.66 0 1.32 0 2 C0.99 2.33 1.98 2.66 3 3 C3 3.66 3 4.32 3 5 C4.32 5.33 5.64 5.66 7 6 C7 7.32 7 8.64 7 10 C6.443125 9.690625 5.88625 9.38125 5.3125 9.0625 C3.05139681 7.90879929 3.05139681 7.90879929 0.625 7.5625 C-2.62162017 6.86679568 -5.14593209 5.68649467 -8 4 C-8.33 3.01 -8.66 2.02 -9 1 C-5.64919071 -1.10976881 -3.77897651 -1.0497157 0 0 Z " fill="#00111C" transform="translate(551,688)"/>
<path d="M0 0 C0.99 0.33 1.98 0.66 3 1 C2.34 1 1.68 1 1 1 C1.03480469 2.22976563 1.06960938 3.45953125 1.10546875 4.7265625 C1.13362045 6.35936127 1.16091913 7.9921749 1.1875 9.625 C1.22520508 10.83736328 1.22520508 10.83736328 1.26367188 12.07421875 C1.32676061 17.24749477 0.60173889 20.40543983 -2 25 C-1.79564192 27.78647557 -1.79564192 27.78647557 -1 30 C-2.32 29.67 -3.64 29.34 -5 29 C-4.56306124 26.45119059 -4.11676189 24.24397329 -2.99609375 21.90234375 C-1.61109462 17.86683648 -1.5754567 13.98964495 -1.4375 9.75 C-1.12166532 1.12166532 -1.12166532 1.12166532 0 0 Z " fill="#474747" transform="translate(355,611)"/>
<path d="M0 0 C2.27159689 1.29033905 4.54229625 2.58221402 6.8125 3.875 C7.45509766 4.23980469 8.09769531 4.60460937 8.75976562 4.98046875 C11.56768798 6.58083901 14.30964298 8.20642866 17 10 C17 10.66 17 11.32 17 12 C0.85 6.9 0.85 6.9 -3 2 C-2.01 1.34 -1.02 0.68 0 0 Z " fill="#0286D9" transform="translate(536,695)"/>
<path d="M0 0 C0.66 0.33 1.32 0.66 2 1 C-0.41340388 3.1809654 -2.83009099 5.35794314 -5.25390625 7.52734375 C-6.96330384 9.06653106 -8.66094131 10.61901181 -10.33984375 12.19140625 C-11.37818359 13.14853516 -11.37818359 13.14853516 -12.4375 14.125 C-13.05496094 14.70507812 -13.67242188 15.28515625 -14.30859375 15.8828125 C-14.86675781 16.25148438 -15.42492187 16.62015625 -16 17 C-16.99 16.67 -17.98 16.34 -19 16 C-18.45730469 15.52949219 -17.91460938 15.05898438 -17.35546875 14.57421875 C-16.64003906 13.95160156 -15.92460938 13.32898438 -15.1875 12.6875 C-14.12595703 11.76517578 -14.12595703 11.76517578 -13.04296875 10.82421875 C-11.29863261 9.26665665 -9.63221959 7.67341125 -8 6 C-11.465 7.485 -11.465 7.485 -15 9 C-15 8.34 -15 7.68 -15 7 C-12.54595776 5.80283341 -10.08748321 4.6170654 -7.625 3.4375 C-6.57699219 2.92413086 -6.57699219 2.92413086 -5.5078125 2.40039062 C-3.69947784 1.53969288 -1.85148044 0.76347564 0 0 Z " fill="#2F2F2F" transform="translate(654,624)"/>
<path d="M0 0 C3.35435922 1.38801071 5.11290303 2.88629 7 6 C7 6.99 7 7.98 7 9 C5.02 9.99 3.04 10.98 1 12 C0.63896464 10.18885568 0.28634496 8.37603177 -0.0625 6.5625 C-0.25972656 5.55316406 -0.45695313 4.54382813 -0.66015625 3.50390625 C-0.77230469 2.67761719 -0.88445313 1.85132813 -1 1 C-0.67 0.67 -0.34 0.34 0 0 Z " fill="#028CE2" transform="translate(639,805)"/>
<path d="M0 0 C0.99 0.33 1.98 0.66 3 1 C-0.65360106 4.34805079 -4.32285113 7.67788619 -8 11 C-8.63550781 11.58652344 -9.27101563 12.17304687 -9.92578125 12.77734375 C-12.97058309 15.49170198 -13.71376096 16 -18 16 C-18 15.34 -18 14.68 -18 14 C-16.42578125 12.59765625 -16.42578125 12.59765625 -14.3125 11.0625 C-13.21421875 10.26199219 -13.21421875 10.26199219 -12.09375 9.4453125 C-10 8 -10 8 -7.3125 6.4375 C-4.44586677 4.6555388 -2.31178771 2.44388987 0 0 Z " fill="#001929" transform="translate(668,691)"/>
<path d="M0 0 C0.99 0.33 1.98 0.66 3 1 C1.34188337 4.31623326 -1.19606159 7.03527391 -3.5625 9.875 C-5.10843031 12.16028829 -6.1364612 14.51483157 -7.1796875 17.0625 C-9.09514827 21.5866359 -11.27525634 25.91288451 -14 30 C-13.53094215 23.96584897 -11.60702206 19.69263971 -8.6875 14.4375 C-8.29626953 13.70853516 -7.90503906 12.97957031 -7.50195312 12.22851562 C-5.20394519 7.9945408 -2.73660906 3.96401267 0 0 Z " fill="#3E2507" transform="translate(358,659)"/>
<path d="M0 0 C0.95003906 -0.01417969 1.90007813 -0.02835938 2.87890625 -0.04296875 C5.4375 0.1875 5.4375 0.1875 8.4375 2.1875 C8.625 5.3125 8.625 5.3125 8.4375 8.1875 C9.0975 8.1875 9.7575 8.1875 10.4375 8.1875 C10.7675 7.1975 11.0975 6.2075 11.4375 5.1875 C11.7675 6.1775 12.0975 7.1675 12.4375 8.1875 C12.1075 8.8475 11.7775 9.5075 11.4375 10.1875 C9.5625 10.0625 9.5625 10.0625 7.4375 9.1875 C6.7775 7.2075 6.1175 5.2275 5.4375 3.1875 C0.4875 3.1875 -4.4625 3.1875 -9.5625 3.1875 C-9.5625 2.5275 -9.5625 1.8675 -9.5625 1.1875 C-6.32974299 0.23219355 -3.36574361 0.02289622 0 0 Z " fill="#333332" transform="translate(551.5625,676.8125)"/>
<path d="M0 0 C7.48447012 2.03670315 15.15506187 4.30125254 22 8 C22.33 8.99 22.66 9.98 23 11 C22.67 11.66 22.34 12.32 22 13 C21.34 12.67 20.68 12.34 20 12 C20 11.34 20 10.68 20 10 C10.1 6.04 10.1 6.04 0 2 C0 1.34 0 0.68 0 0 Z " fill="#373635" transform="translate(543,668)"/>
<path d="M0 0 C0 0.66 0 1.32 0 2 C1.32 2.33 2.64 2.66 4 3 C4 3.99 4 4.98 4 6 C2.02 5.01 0.04 4.02 -2 3 C-2.66 3.66 -3.32 4.32 -4 5 C-3.34 5.66 -2.68 6.32 -2 7 C-3.8125 7.625 -3.8125 7.625 -6 8 C-6.99 7.34 -7.98 6.68 -9 6 C-8.00269864 3.5067466 -7.34925469 2.22532561 -5.0625 0.75 C-3 0 -3 0 0 0 Z " fill="#02101A" transform="translate(538,693)"/>
<path d="M0 0 C2.97246802 2.54782974 4.41535288 5.45340883 6 9 C6 9.66 6 10.32 6 11 C6.66 11.33 7.32 11.66 8 12 C7.01 12.495 7.01 12.495 6 13 C6.33 15.97 6.66 18.94 7 22 C6.34 22 5.68 22 5 22 C3.19853892 17.4362986 2.68666832 13.24680774 2.28515625 8.4140625 C1.93338547 5.43605784 1.09875361 2.78350914 0 0 Z " fill="#002F4C" transform="translate(633,793)"/>
<path d="M0 0 C-0.33 2.31 -0.66 4.62 -1 7 C-4.63 7 -8.26 7 -12 7 C-8.85595666 3.85595666 -4.70527539 0 0 0 Z " fill="#0072BB" transform="translate(633,771)"/>
<path d="M0 0 C0.66 0.33 1.32 0.66 2 1 C1.71801758 1.47832275 1.43603516 1.95664551 1.14550781 2.44946289 C-0.15347263 4.65352737 -1.45174014 6.858011 -2.75 9.0625 C-3.1934375 9.81466797 -3.636875 10.56683594 -4.09375 11.34179688 C-6.76310763 15.87577932 -9.40007674 20.42583594 -12 25 C-13 22 -13 22 -11.92016602 19.63989258 C-11.37030029 18.73392334 -10.82043457 17.8279541 -10.25390625 16.89453125 C-9.66416016 15.91162109 -9.07441406 14.92871094 -8.46679688 13.91601562 C-7.83837891 12.89185547 -7.20996094 11.86769531 -6.5625 10.8125 C-5.93794922 9.77673828 -5.31339844 8.74097656 -4.66992188 7.67382812 C-3.12230965 5.1102262 -1.56541005 2.55275933 0 0 Z " fill="#3F2607" transform="translate(312,742)"/>
<path d="M0 0 C7.19872326 5.12216847 13.56439479 10.97198312 20 17 C19.01 17.33 18.02 17.66 17 18 C16.45472656 17.43152344 15.90945313 16.86304688 15.34765625 16.27734375 C10.21483257 11.02168326 4.91799049 6.35105211 -1 2 C-0.67 1.34 -0.34 0.68 0 0 Z " fill="#321E06" transform="translate(394,690)"/>
<path d="M0 0 C1.2077558 3.62326739 0.54311128 4.64146369 -1 8 C-1.66 8 -2.32 8 -3 8 C-3.33 6.02 -3.66 4.04 -4 2 C-7.3 1.34 -10.6 0.68 -14 0 C-14 -0.33 -14 -0.66 -14 -1 C-8.72630218 -2.07626486 -5.03216982 -2.01286793 0 0 Z " fill="#DADADA" transform="translate(563,677)"/>
<path d="M0 0 C2.64 0 5.28 0 8 0 C8 0.99 8 1.98 8 3 C5 5.1875 5 5.1875 2 7 C0 4 0 4 0 0 Z " fill="#0289DF" transform="translate(646,687)"/>
<path d="M0 0 C3.68325543 0.3953068 6.90605696 1.65450354 10.3125 3.0625 C11.19550781 3.42472656 12.07851563 3.78695312 12.98828125 4.16015625 C13.98408203 4.57587891 13.98408203 4.57587891 15 5 C15 5.66 15 6.32 15 7 C13.4840625 6.566875 13.4840625 6.566875 11.9375 6.125 C10.98037109 5.86009766 10.98037109 5.86009766 10.00390625 5.58984375 C8.10394502 5.0305959 6.23725125 4.36176338 4.375 3.6875 C0.99022743 2.64873742 0.99022743 2.64873742 -1.9375 4.375 C-2.618125 4.91125 -3.29875 5.4475 -4 6 C-2.84826645 3.53199953 -1.95216435 1.95216435 0 0 Z " fill="#404040" transform="translate(516,705)"/>
<path d="M0 0 C3.30118794 0.5805321 4.91134076 1.54868099 7.234375 3.94140625 C8.09482422 4.81635742 8.09482422 4.81635742 8.97265625 5.70898438 C9.55917969 6.32064453 10.14570313 6.93230469 10.75 7.5625 C11.35199219 8.17802734 11.95398438 8.79355469 12.57421875 9.42773438 C14.05634381 10.94514813 15.5290967 12.47170596 17 14 C16.67 14.99 16.34 15.98 16 17 C15.43285278 16.38741333 15.43285278 16.38741333 14.85424805 15.76245117 C13.13260958 13.90356726 11.41006414 12.04552614 9.6875 10.1875 C9.09259766 9.54490234 8.49769531 8.90230469 7.88476562 8.24023438 C7.30791016 7.61826172 6.73105469 6.99628906 6.13671875 6.35546875 C5.60780029 5.78465576 5.07888184 5.21384277 4.53393555 4.62573242 C3.05064301 3.0536737 1.5362705 1.52016282 0 0 Z " fill="#2A2A2A" transform="translate(387,188)"/>
<path d="M0 0 C0 0.99 0 1.98 0 3 C-1.93370231 4.00732399 -3.87210306 5.00563288 -5.8125 6 C-7.43091797 6.8353125 -7.43091797 6.8353125 -9.08203125 7.6875 C-12 9 -12 9 -15 9 C-15 8.34 -15 7.68 -15 7 C-10.05 4.69 -5.1 2.38 0 0 Z " fill="#3D3C3B" transform="translate(540,679)"/>
<path d="M0 0 C4.6611126 3.29219361 8.60390706 6.34609485 12 11 C12.98230498 12.0173873 13.97469597 13.02596117 15 14 C10.58993138 13.5694933 8.16999427 10.5782946 5.25 7.5625 C4.74339844 7.05912109 4.23679687 6.55574219 3.71484375 6.03710938 C0 2.26719382 0 2.26719382 0 0 Z " fill="#482B09" transform="translate(324,559)"/>
<path d="M0 0 C2.53910197 0.38520564 3.72751123 0.70097943 5.484375 2.62890625 C5.90203125 3.26699219 6.3196875 3.90507813 6.75 4.5625 C7.17796875 5.20316406 7.6059375 5.84382812 8.046875 6.50390625 C8.36140625 6.99761719 8.6759375 7.49132812 9 8 C8.34 8.66 7.68 9.32 7 10 C6.34 9.01 5.68 8.02 5 7 C4.01 7.495 4.01 7.495 3 8 C0 2.25 0 2.25 0 0 Z " fill="#00111C" transform="translate(630,790)"/>
<path d="M0 0 C5.08335725 0.15404113 7.35754718 3.02068432 10.64453125 6.50390625 C11.09183594 6.99761719 11.53914062 7.49132812 12 8 C11.67 8.99 11.34 9.98 11 11 C10.7525 10.38125 10.505 9.7625 10.25 9.125 C8.74219866 6.56173771 7.69654224 6.15566096 5 5 C2.25 3.5 2.25 3.5 0 2 C0 1.34 0 0.68 0 0 Z " fill="#001827" transform="translate(619,677)"/>
<path d="M0 0 C3.465 1.98 3.465 1.98 7 4 C5.68 4.99 4.36 5.98 3 7 C1.02 5.68 -0.96 4.36 -3 3 C-2.01 2.01 -1.02 1.02 0 0 Z " fill="#015182" transform="translate(536,695)"/>
<path d="M0 0 C4.31730413 0.47409648 6.33647461 3.03396703 9.25 6.0625 C10.14203125 6.98160156 11.0340625 7.90070312 11.953125 8.84765625 C12.62859375 9.55792969 13.3040625 10.26820313 14 11 C13.67 11.66 13.34 12.32 13 13 C10.95880212 11.38405168 8.95927063 9.7143618 7 8 C7 7.34 7 6.68 7 6 C6.01 5.67 5.02 5.34 4 5 C2.61423077 3.37667033 1.27358732 1.71275535 0 0 Z " fill="#382207" transform="translate(361,662)"/>
<path d="M0 0 C0.99 0.33 1.98 0.66 3 1 C1.02 1.99 1.02 1.99 -1 3 C-1 3.66 -1 4.32 -1 5 C-0.113125 5.28875 0.77375 5.5775 1.6875 5.875 C4.50382424 6.83148748 7.25083156 7.86798946 10 9 C7.26980214 10.06528748 6.20701188 10.07998186 3.421875 9.00390625 C2.54015625 8.52824219 1.6584375 8.05257812 0.75 7.5625 C-0.14203125 7.08941406 -1.0340625 6.61632812 -1.953125 6.12890625 C-2.62859375 5.75636719 -3.3040625 5.38382813 -4 5 C-2.68 3.35 -1.36 1.7 0 0 Z " fill="#292929" transform="translate(625,663)"/>
<path d="M0 0 C0.66 0 1.32 0 2 0 C2.66 1.98 3.32 3.96 4 6 C2.02 6.66 0.04 7.32 -2 8 C-1.34 5.36 -0.68 2.72 0 0 Z " fill="#000C14" transform="translate(628,802)"/>
<path d="M0 0 C1.875 0.9375 1.875 0.9375 3.125 3.5 C3.3725 4.304375 3.62 5.10875 3.875 5.9375 C2.39382199 5.65622579 0.91506751 5.36216268 -0.5625 5.0625 C-1.38621094 4.90007813 -2.20992187 4.73765625 -3.05859375 4.5703125 C-3.74050781 4.36148438 -4.42242188 4.15265625 -5.125 3.9375 C-5.455 3.2775 -5.785 2.6175 -6.125 1.9375 C-3.94811446 0.61581949 -2.57282067 -0.0756712 0 0 Z " fill="#031E30" transform="translate(548.125,687.0625)"/>
<path d="M0 0 C0.99 0.33 1.98 0.66 3 1 C-0.63 4.3 -4.26 7.6 -8 11 C-8.66 10.67 -9.32 10.34 -10 10 C-6.7 6.7 -3.4 3.4 0 0 Z " fill="#00619E" transform="translate(668,691)"/>
<path d="M0 0 C3.63 0 7.26 0 11 0 C11 0.66 11 1.32 11 2 C5.06 2.495 5.06 2.495 -1 3 C-0.67 2.01 -0.34 1.02 0 0 Z " fill="#011928" transform="translate(575,681)"/>
<path d="M0 0 C1.1055189 0.93590504 2.20935453 1.87379858 3.3125 2.8125 C3.92738281 3.33457031 4.54226563 3.85664062 5.17578125 4.39453125 C8.51952278 7.3373102 8.51952278 7.3373102 10 9 C10 9.66 10 10.32 10 11 C5.90725115 9.42586583 2.64043987 6.45897623 0 3 C0 2.01 0 1.02 0 0 Z " fill="#4C2D09" transform="translate(308,542)"/>
<path d="M0 0 C3.66881155 0.70554068 6.70450534 2.27735506 10 4 C10 4.66 10 5.32 10 6 C8.5164999 5.57742724 7.03823576 5.13643678 5.5625 4.6875 C4.73878906 4.44386719 3.91507813 4.20023438 3.06640625 3.94921875 C2.04353516 3.47935547 2.04353516 3.47935547 1 3 C0.67 2.01 0.34 1.02 0 0 Z " fill="#000A10" transform="translate(543,690)"/>
<path d="M0 0 C-1.5830577 4.2742558 -4.50568404 6.26531794 -8 9 C-8 6 -8 6 -6.7578125 4.39453125 C-5.94957031 3.61142578 -5.94957031 3.61142578 -5.125 2.8125 C-4.59132813 2.28269531 -4.05765625 1.75289063 -3.5078125 1.20703125 C-2 0 -2 0 0 0 Z " fill="#352006" transform="translate(657,338)"/>
<path d="M0 0 C0 0.66 0 1.32 0 2 C-3.63 2.66 -7.26 3.32 -11 4 C-11 3.34 -11 2.68 -11 2 C-7.17679443 0.57741188 -4.08718695 -0.24042276 0 0 Z " fill="#011B2B" transform="translate(598,678)"/>
<path d="M0 0 C0.99 0.33 1.98 0.66 3 1 C-0.3 3.64 -3.6 6.28 -7 9 C-7 6 -7 6 -5.57421875 4.359375 C-4.95160156 3.82828125 -4.32898438 3.2971875 -3.6875 2.75 C-3.07261719 2.20859375 -2.45773437 1.6671875 -1.82421875 1.109375 C-1.22222656 0.74328125 -0.62023437 0.3771875 0 0 Z " fill="#3C3C3C" transform="translate(636,654)"/>
<path d="M0 0 C0.66 0.99 1.32 1.98 2 3 C1.5390625 5.26171875 1.5390625 5.26171875 0.625 7.6875 C0.18027344 8.89986328 0.18027344 8.89986328 -0.2734375 10.13671875 C-0.51320313 10.75160156 -0.75296875 11.36648438 -1 12 C-1.66 12 -2.32 12 -3 12 C-2.69106068 10.3743193 -2.3777305 8.74947252 -2.0625 7.125 C-1.88847656 6.22007812 -1.71445312 5.31515625 -1.53515625 4.3828125 C-1 2 -1 2 0 0 Z " fill="#372106" transform="translate(306,381)"/>
<path d="M0 0 C3.80635497 3.20760251 7.54563567 6.40746109 11 10 C7.43235179 9.42380903 5.74840503 8.13030516 3.25 5.5625 C2.63640625 4.94503906 2.0228125 4.32757812 1.390625 3.69140625 C0 2 0 2 0 0 Z " fill="#313130" transform="translate(408,687)"/>
<path d="M0 0 C4.37859255 0.50522222 6.81651224 3.17827222 10 6 C9.67 6.99 9.34 7.98 9 9 C7.49704815 7.69088122 5.99770689 6.37761608 4.5 5.0625 C3.6646875 4.33160156 2.829375 3.60070312 1.96875 2.84765625 C1.3190625 2.23792969 0.669375 1.62820313 0 1 C0 0.67 0 0.34 0 0 Z " fill="#3C2407" transform="translate(383,682)"/>
<path d="M0 0 C2.64752004 2.57784846 4.94432065 4.91648098 7 8 C6.01 8 5.02 8 4 8 C0 3.77142857 0 3.77142857 0 0 Z " fill="#3D2508" transform="translate(435,729)"/>
<path d="M0 0 C0.86625 0.37125 0.86625 0.37125 1.75 0.75 C0.821875 1.348125 -0.10625 1.94625 -1.0625 2.5625 C-3.45254718 4.20272845 -5.33470253 5.6218917 -7.25 7.75 C-6.66524269 3.65669884 -4.62230386 -0.51358932 0 0 Z " fill="#444444" transform="translate(507.25,714.25)"/>
<path d="M0 0 C0 0.66 0 1.32 0 2 C-1.53125 3.2890625 -1.53125 3.2890625 -3.5 4.625 C-4.1496875 5.07101562 -4.799375 5.51703125 -5.46875 5.9765625 C-5.9740625 6.31429687 -6.479375 6.65203125 -7 7 C-6.01695477 2.51137841 -4.96473025 0 0 0 Z " fill="#001320" transform="translate(670,689)"/>
<path d="M0 0 C0.66 0.66 1.32 1.32 2 2 C0.35 2.66 -1.3 3.32 -3 4 C-3 4.66 -3 5.32 -3 6 C-4.98 6.99 -4.98 6.99 -7 8 C-5.50902342 4.2047869 -3.24299151 2.38957269 0 0 Z " fill="#2D2C2C" transform="translate(508,698)"/>
<path d="M0 0 C1.32 0 2.64 0 4 0 C4.33 0.99 4.66 1.98 5 3 C3.02 3.66 1.04 4.32 -1 5 C-0.67 3.35 -0.34 1.7 0 0 Z " fill="#001726" transform="translate(654,686)"/>
<path d="M0 0 C2.31 1.98 4.62 3.96 7 6 C6.67 6.66 6.34 7.32 6 8 C3.69 6.02 1.38 4.04 -1 2 C-0.67 1.34 -0.34 0.68 0 0 Z " fill="#352006" transform="translate(376,674)"/>
</svg>
